<svg width="14" height="14" viewBox="0 0 14 14" fill="none" xmlns="http://www.w3.org/2000/svg">
<path d="M12.2424 2.483C12.8198 3.06041 12.8293 3.99361 12.2637 4.5826L7.70491 9.33006C7.42962 9.61675 7.0518 9.78245 6.65443 9.79079L4.74109 9.83093L4.78155 7.90236C4.7897 7.51403 4.94817 7.144 5.22361 6.87013L9.88226 2.2381C10.4685 1.65517 11.4159 1.65653 12.0005 2.24113L12.2424 2.483Z" fill="#3855B3"/>
<path d="M7.52459 1.16663C7.84676 1.16663 8.10793 1.42779 8.10793 1.74996C8.10793 2.07213 7.84676 2.33329 7.52459 2.33329H3.49959C2.85526 2.33329 2.33293 2.85563 2.33293 3.49996V10.5C2.33293 11.1443 2.85526 11.6666 3.49959 11.6666H10.4996C11.1439 11.6666 11.6663 11.1443 11.6663 10.5V7.58329C11.6663 7.26113 11.9274 6.99996 12.2496 6.99996C12.5718 6.99996 12.8329 7.26113 12.8329 7.58329V10.5C12.8329 11.7886 11.7883 12.8333 10.4996 12.8333H3.49959C2.21093 12.8333 1.16626 11.7886 1.16626 10.5V3.49996C1.16626 2.21129 2.21093 1.16663 3.49959 1.16663H7.52459Z" fill="#3855B3"/>
</svg>
