<svg width="34" height="34" viewBox="0 0 34 34" fill="none" xmlns="http://www.w3.org/2000/svg">
<path d="M14.904 10.2746L12.0422 6.45322L13.5683 1.92961C13.62 1.77656 13.5801 1.60777 13.4661 1.49373C13.352 1.37968 13.1824 1.34026 13.0302 1.39277L8.51123 2.9333L4.68048 0.0842177C4.55112 -0.0120188 4.3786 -0.0264295 4.23442 0.046866C4.09064 0.120244 4.00078 0.269071 4.00335 0.430653L4.07201 5.20447L0.178482 7.96742C0.0466332 8.06067 -0.020368 8.22101 0.00547177 8.38044C0.0308974 8.53945 0.144526 8.67089 0.298902 8.71843L4.85987 10.1279L6.28462 14.6847C6.33257 14.8386 6.46401 14.9523 6.62343 14.9769C6.64588 14.9803 6.66749 14.9819 6.68919 14.9819C6.82576 14.9819 6.95546 14.9157 7.03563 14.8021L9.78591 10.8997L14.5597 10.9527C14.561 10.9527 14.5627 10.9527 14.5644 10.9527C14.7238 10.9527 14.8705 10.8633 14.9426 10.7208C15.016 10.577 15.0007 10.4036 14.904 10.2746ZM9.57215 10.0495C9.57091 10.0495 9.56917 10.0495 9.56751 10.0495C9.4297 10.0495 9.30033 10.1165 9.22108 10.2293L6.83711 13.6118L5.60235 9.66274C5.56077 9.52956 5.45609 9.42529 5.32292 9.38413L1.37001 8.16254L4.7445 5.76714C4.85813 5.68656 4.92513 5.55471 4.92306 5.41516L4.86318 1.27782L8.18343 3.747C8.2954 3.83057 8.44207 3.85343 8.57309 3.80804L12.4899 2.47274L11.1673 6.39343C11.1228 6.52569 11.1457 6.67162 11.2292 6.78309L13.7098 10.0952L9.57215 10.0495Z" fill="#585757"/>
<path d="M33.1476 11.7453L30.2853 7.92393L31.8114 3.40032C31.8632 3.24726 31.8233 3.07848 31.7092 2.96444C31.5943 2.85039 31.4256 2.81138 31.2734 2.86348L26.7544 4.40401L22.9236 1.55534C22.7943 1.4591 22.6213 1.44428 22.4776 1.51799C22.3338 1.59137 22.2439 1.74019 22.2465 1.90177L22.3151 6.67559L18.4216 9.43862C18.2902 9.53188 18.2228 9.69222 18.2486 9.85165C18.274 10.0107 18.3877 10.1421 18.542 10.1896L23.1034 11.5991L24.5282 16.1558C24.5761 16.3098 24.7076 16.4234 24.867 16.448C24.8894 16.4514 24.9111 16.453 24.9328 16.453C25.0693 16.453 25.199 16.3869 25.2792 16.2732L28.0291 12.3704L32.8033 12.4234C32.8045 12.4234 32.8063 12.4234 32.8079 12.4234C32.9673 12.4234 33.1141 12.3339 33.1862 12.1914C33.2595 12.0472 33.2442 11.8742 33.1476 11.7453ZM27.8157 11.5201C27.8145 11.5201 27.8127 11.5201 27.8111 11.5201C27.6733 11.5201 27.5439 11.5871 27.4646 11.6999L25.0811 15.0825L23.8463 11.1329C23.8047 10.9998 23.7001 10.8955 23.5669 10.8543L19.6136 9.63267L22.9881 7.2381C23.1017 7.15752 23.1687 7.02567 23.1666 6.88612L23.1068 2.74877L26.4271 5.21796C26.539 5.30153 26.6857 5.32397 26.8167 5.279L30.7335 3.9437L29.411 7.8648C29.3664 7.99706 29.3894 8.14299 29.4729 8.25447L31.954 11.5666L27.8157 11.5201Z" fill="#585757"/>
<path d="M28.9247 19.8266C28.8391 19.6896 28.6817 19.6142 28.5223 19.6302L24.2802 20.0661L21.5159 16.8188C21.4115 16.6959 21.2462 16.6428 21.0893 16.6823C20.9328 16.7217 20.8124 16.8463 20.7785 17.0045L19.882 21.1741L15.9393 22.7994C15.7897 22.8609 15.6887 23.0017 15.6777 23.1628C15.6671 23.324 15.7485 23.4771 15.888 23.5581L19.5763 25.699L19.9037 29.9512C19.916 30.1119 20.0187 30.2519 20.1687 30.3125C20.2196 30.3329 20.2731 30.3431 20.3265 30.3431C20.4291 30.3431 20.5301 30.3057 20.6093 30.2349L23.7858 27.3883L27.9308 28.3908C28.0881 28.4285 28.2526 28.3742 28.3561 28.2504C28.4595 28.1266 28.4837 27.9544 28.418 27.8068L26.6922 23.9069L28.9269 20.2742C29.0112 20.1369 29.0103 19.9635 28.9247 19.8266ZM25.8538 23.6522C25.7805 23.771 25.7707 23.9181 25.8276 24.0462L27.2961 27.3643L23.7693 26.5116C23.6332 26.4785 23.4899 26.5146 23.3869 26.6082L20.6845 29.0299L20.4059 25.412C20.3953 25.2729 20.3168 25.1478 20.196 25.0778L17.0581 23.2566L20.4122 21.8734C20.5416 21.8204 20.6357 21.7068 20.6654 21.5706L21.4283 18.0227L23.78 20.7857C23.8708 20.8922 24.0082 20.9469 24.1464 20.9329L27.7563 20.5619L25.8538 23.6522Z" fill="#585757"/>
<path d="M13.4126 30.0959L11.1478 27.0721L12.3555 23.4928C12.4072 23.3398 12.3673 23.171 12.2533 23.0569C12.1392 22.9429 11.9696 22.9035 11.8174 22.956L8.24107 24.1751L5.21004 21.9209C5.08067 21.8247 4.90766 21.8102 4.76397 21.8835C4.62019 21.9569 4.53034 22.1057 4.5329 22.2673L4.58765 26.0447L1.50659 28.231C1.37515 28.3243 1.30774 28.4846 1.33358 28.644C1.359 28.8035 1.47263 28.9345 1.62701 28.982L5.23637 30.0973L6.36347 33.7028C6.41142 33.8568 6.54286 33.9704 6.70228 33.995C6.72431 33.9984 6.74634 34.0001 6.76804 34.0001C6.90461 34.0001 7.03431 33.9339 7.11448 33.8203L9.29106 30.732L13.0684 30.774C13.0696 30.774 13.0714 30.774 13.073 30.774C13.2325 30.774 13.3792 30.6846 13.4513 30.542C13.5246 30.3982 13.5092 30.2248 13.4126 30.0959ZM9.07722 29.8814C8.95084 29.8805 8.80624 29.9471 8.72615 30.0612L6.91596 32.6292L5.97885 29.6308C5.93728 29.4977 5.83259 29.3934 5.69942 29.3522L2.69811 28.4249L5.26014 26.6071C5.37377 26.5265 5.44077 26.3946 5.4387 26.2551L5.39332 23.1138L7.91377 24.9885C8.02574 25.072 8.172 25.0945 8.30344 25.0495L11.2777 24.0356L10.2736 27.0123C10.229 27.1446 10.2519 27.2905 10.3359 27.402L12.2191 29.9166L9.07722 29.8814Z" fill="#585757"/>
<path d="M4.36136 16.3911L2.44888 13.079C2.33145 12.8759 2.07147 12.8064 1.86964 12.9238L0.421126 13.76C0.324061 13.8164 0.252753 13.9088 0.223518 14.0174C0.194282 14.126 0.209521 14.2417 0.265921 14.3393L2.17831 17.6518C2.23471 17.7489 2.32755 17.8202 2.43572 17.8494C2.47174 17.8592 2.50868 17.8638 2.54553 17.8638C2.61933 17.8638 2.69271 17.8448 2.75755 17.807L4.20607 16.9704C4.40923 16.8533 4.4788 16.5939 4.36136 16.3911ZM2.70082 16.8605L1.21247 14.2829L1.92654 13.8707L3.41489 16.4484L2.70082 16.8605Z" fill="#585757"/>
<path d="M19.8293 3.52445L17.9168 0.212325C17.8604 0.115261 17.7676 0.0439528 17.6594 0.0147174C17.5513 -0.0149321 17.4352 0.000720873 17.3376 0.0571211L15.8891 0.893766C15.6859 1.01079 15.6164 1.27035 15.7339 1.47301L17.6458 4.78513C17.7247 4.92129 17.8667 4.99715 18.0135 4.99715C18.0855 4.99715 18.1585 4.97893 18.2251 4.94034L19.674 4.10411C19.7716 4.04771 19.8428 3.95528 19.8716 3.84629C19.9005 3.73771 19.8857 3.62201 19.8293 3.52445ZM18.1688 3.99387L16.6808 1.41611L17.3949 1.0035L18.8833 3.58127L18.1688 3.99387Z" fill="#585757"/>
<path d="M11.8019 17.391C11.7731 17.282 11.7019 17.19 11.6043 17.1336L10.1558 16.2974C9.95315 16.1807 9.69359 16.2499 9.57657 16.4526L7.66417 19.7648C7.60777 19.8618 7.59295 19.9776 7.62177 20.0866C7.65059 20.1956 7.72182 20.288 7.81938 20.344L9.2679 21.1802C9.33448 21.2188 9.40745 21.2371 9.4795 21.2371C9.62626 21.2371 9.76871 21.1611 9.84714 21.025L11.7595 17.7129C11.8159 17.6158 11.8308 17.5 11.8019 17.391ZM9.32471 20.2338L8.61064 19.8216L10.099 17.2438L10.8131 17.656L9.32471 20.2338Z" fill="#585757"/>
<path d="M16.8162 12.5073C16.806 12.3954 16.7517 12.2919 16.6652 12.2203C16.5791 12.1482 16.468 12.1151 16.3556 12.1236L12.5469 12.4701C12.4349 12.4802 12.3315 12.5345 12.2594 12.621C12.1874 12.7075 12.153 12.8191 12.1628 12.931L12.3142 14.5966C12.3345 14.8167 12.519 14.9821 12.736 14.9821C12.7488 14.9821 12.7619 14.9817 12.7751 14.9803L16.5834 14.6339C16.8166 14.6127 16.9883 14.4066 16.9676 14.173L16.8162 12.5073ZM13.1202 14.0975L13.0452 13.2761L16.0092 13.0065L16.0839 13.8278L13.1202 14.0975Z" fill="#585757"/>
<path d="M26.4487 29.8966L25.0002 29.0604C24.9026 29.004 24.786 28.9892 24.6783 29.018C24.5698 29.0468 24.4769 29.1181 24.4209 29.2156L22.509 32.5277C22.3919 32.7308 22.4615 32.99 22.6642 33.107L24.1127 33.9432C24.1775 33.9806 24.2509 34 24.3247 34C24.3616 34 24.3985 33.9954 24.4345 33.9856C24.5431 33.9568 24.6359 33.8856 24.6919 33.788L26.6039 30.4759C26.7209 30.2728 26.6514 30.0137 26.4487 29.8966ZM24.1695 32.9968L23.4554 32.5842L24.9434 30.007L25.6574 30.4192L24.1695 32.9968Z" fill="#585757"/>
<path d="M32.971 25.5668L31.4105 22.0753C31.3151 21.8616 31.0657 21.7657 30.8504 21.8611L29.323 22.5434C29.2204 22.5892 29.1402 22.674 29.1004 22.7792C29.0601 22.8844 29.063 23.001 29.1093 23.1036L30.6698 26.5951C30.7402 26.7524 30.895 26.8461 31.0574 26.8461C31.1151 26.8461 31.1736 26.8343 31.23 26.8093L32.7574 26.127C32.86 26.0812 32.9402 25.9964 32.98 25.8912C33.0202 25.7861 33.0172 25.6694 32.971 25.5668ZM31.271 25.8619L30.057 23.1443L30.8096 22.808L32.0237 25.5257L31.271 25.8619Z" fill="#585757"/>
<path d="M32.9943 15.3478L32.0202 13.9879C31.8841 13.7979 31.619 13.7534 31.4287 13.8903L28.3197 16.1174C28.2281 16.1826 28.1666 16.2819 28.1484 16.393C28.1297 16.504 28.1564 16.6178 28.2222 16.7094L29.1966 18.0693C29.2793 18.1846 29.4095 18.2461 29.5414 18.2461C29.6266 18.2461 29.7132 18.2202 29.7878 18.1668L32.8969 15.9398C32.9885 15.8745 33.0499 15.7752 33.0681 15.6642C33.0867 15.553 33.06 15.4394 32.9943 15.3478ZM29.6385 17.2305L29.158 16.5597L31.5776 14.8262L32.0581 15.497L29.6385 17.2305Z" fill="#585757"/>
<path d="M18.6668 17.7591L17.6928 16.3992C17.6275 16.308 17.5282 16.2462 17.4176 16.2279C17.306 16.2105 17.1933 16.2364 17.1017 16.3017L13.9927 18.5287C13.8022 18.6653 13.7582 18.9299 13.8951 19.1207L14.8691 20.4806C14.9344 20.5718 15.0337 20.6337 15.1443 20.6519C15.1677 20.6557 15.1901 20.6575 15.2135 20.6575C15.3017 20.6575 15.3878 20.6303 15.4603 20.5782L18.5694 18.3512C18.7597 18.2145 18.8037 17.9499 18.6668 17.7591ZM15.3106 19.6414L14.8305 18.971L17.2501 17.238L17.7301 17.9084L15.3106 19.6414Z" fill="#585757"/>
</svg>
