<svg width="18" height="17" viewBox="0 0 18 17" fill="none" xmlns="http://www.w3.org/2000/svg">
<path d="M14 1C13.337 1 12.7011 1.26339 12.2322 1.73223C11.7634 2.20107 11.5 2.83696 11.5 3.5V13.5C11.5 14.163 11.7634 14.7989 12.2322 15.2678C12.7011 15.7366 13.337 16 14 16C14.663 16 15.2989 15.7366 15.7678 15.2678C16.2366 14.7989 16.5 14.163 16.5 13.5C16.5 12.837 16.2366 12.2011 15.7678 11.7322C15.2989 11.2634 14.663 11 14 11H4C3.33696 11 2.70107 11.2634 2.23223 11.7322C1.76339 12.2011 1.5 12.837 1.5 13.5C1.5 14.163 1.76339 14.7989 2.23223 15.2678C2.70107 15.7366 3.33696 16 4 16C4.66304 16 5.29893 15.7366 5.76777 15.2678C6.23661 14.7989 6.5 14.163 6.5 13.5V3.5C6.5 2.83696 6.23661 2.20107 5.76777 1.73223C5.29893 1.26339 4.66304 1 4 1C3.33696 1 2.70107 1.26339 2.23223 1.73223C1.76339 2.20107 1.5 2.83696 1.5 3.5C1.5 4.16304 1.76339 4.79893 2.23223 5.26777C2.70107 5.73661 3.33696 6 4 6H14C14.663 6 15.2989 5.73661 15.7678 5.26777C16.2366 4.79893 16.5 4.16304 16.5 3.5C16.5 2.83696 16.2366 2.20107 15.7678 1.73223C15.2989 1.26339 14.663 1 14 1Z" stroke="#969696" stroke-width="2" stroke-linecap="round" stroke-linejoin="round"/>
</svg>
