<svg width="20" height="21" viewBox="0 0 20 21" fill="none" xmlns="http://www.w3.org/2000/svg">
<path d="M15 3C14.337 3 13.7011 3.26339 13.2322 3.73223C12.7634 4.20107 12.5 4.83696 12.5 5.5V15.5C12.5 16.163 12.7634 16.7989 13.2322 17.2678C13.7011 17.7366 14.337 18 15 18C15.663 18 16.2989 17.7366 16.7678 17.2678C17.2366 16.7989 17.5 16.163 17.5 15.5C17.5 14.837 17.2366 14.2011 16.7678 13.7322C16.2989 13.2634 15.663 13 15 13H5C4.33696 13 3.70107 13.2634 3.23223 13.7322C2.76339 14.2011 2.5 14.837 2.5 15.5C2.5 16.163 2.76339 16.7989 3.23223 17.2678C3.70107 17.7366 4.33696 18 5 18C5.66304 18 6.29893 17.7366 6.76777 17.2678C7.23661 16.7989 7.5 16.163 7.5 15.5V5.5C7.5 4.83696 7.23661 4.20107 6.76777 3.73223C6.29893 3.26339 5.66304 3 5 3C4.33696 3 3.70107 3.26339 3.23223 3.73223C2.76339 4.20107 2.5 4.83696 2.5 5.5C2.5 6.16304 2.76339 6.79893 3.23223 7.26777C3.70107 7.73661 4.33696 8 5 8H15C15.663 8 16.2989 7.73661 16.7678 7.26777C17.2366 6.79893 17.5 6.16304 17.5 5.5C17.5 4.83696 17.2366 4.20107 16.7678 3.73223C16.2989 3.26339 15.663 3 15 3Z" stroke="#969696" stroke-width="2" stroke-linecap="round" stroke-linejoin="round"/>
</svg>