<svg width="24" height="22" viewBox="0 0 24 22" fill="none" xmlns="http://www.w3.org/2000/svg">
<path d="M1.70254 0.492302C0.905209 0.605303 0.196988 1.26072 0.046902 2.02461C0.0140706 2.18281 0 5.54124 0 11.788C0 21.1581 0 21.3073 0.093804 21.452C0.196988 21.6192 0.417428 21.696 0.633177 21.6373C0.731671 21.6147 1.52901 20.8734 3.23624 19.2281L5.69859 16.855H12.945C19.0281 16.855 20.2382 16.8415 20.4727 16.7917C21.1434 16.6381 21.6734 16.1634 21.9079 15.508C21.9923 15.2685 21.997 15.0651 21.997 11.1009V6.93795L22.8413 6.11981C23.5073 5.46892 23.709 5.24291 23.8028 5.04403C24.1592 4.29821 24.0279 3.5298 23.4463 2.95123C23.1508 2.66194 22.8038 2.4947 22.3582 2.4269L22.0064 2.37266L21.983 2.12857C21.9267 1.62684 21.5046 1.00759 21.0309 0.740906C20.5149 0.45162 21.3123 0.47422 11.1627 0.465181C6.09257 0.460661 1.83856 0.47422 1.70254 0.492302ZM20.4258 1.5274C20.7963 1.69012 21.0121 2.03817 21.0121 2.48114V2.68906L18.1745 5.4192L15.337 8.15385L10.3137 8.17645L5.29054 8.19905L5.15453 8.34821C4.96223 8.55614 4.96692 8.7957 5.16391 8.98555L5.30931 9.12567H9.90101C12.4243 9.12567 14.4927 9.13019 14.4927 9.13923C14.4927 9.14827 14.3895 9.65904 14.2582 10.2783C14.1316 10.8975 14.0237 11.4806 14.0237 11.5801C14.0237 11.8196 14.2348 12.0185 14.488 12.0185C14.624 12.0185 16.5376 11.6705 17.1192 11.5439C17.1896 11.5258 17.9728 10.8071 19.1219 9.69972L21.0121 7.88265V11.4987C21.0121 14.9114 21.0074 15.1238 20.923 15.2956C20.8198 15.5171 20.6181 15.716 20.4024 15.8109C20.2523 15.8742 19.5206 15.8832 12.7573 15.8968L5.28116 15.9058L3.13305 17.976L0.984942 20.0417L0.994322 11.0919L1.00839 2.14213L1.11158 1.95229C1.21945 1.75793 1.4352 1.5726 1.64157 1.49124C1.71661 1.46412 5.04196 1.44604 10.9985 1.44604C19.8395 1.44152 20.2476 1.44604 20.4258 1.5274ZM22.513 3.45296C22.6537 3.52528 22.8553 3.72416 22.9351 3.88237C23.0195 4.03605 23.0101 4.42026 22.9163 4.6101C22.8741 4.69598 22.6537 4.94459 22.4285 5.16155L22.0205 5.5548L21.3732 4.93103L20.726 4.30725L21.1903 3.87333C21.5749 3.51624 21.6922 3.43036 21.861 3.3942C22.0908 3.34448 22.3347 3.36708 22.513 3.45296ZM19.0234 8.44314L16.7581 10.6263L15.9701 10.78C15.5339 10.8659 15.1728 10.9247 15.1634 10.9201C15.1587 10.9111 15.2197 10.5631 15.3088 10.1427L15.4683 9.38332L17.7336 7.20011L20.0037 5.01239L20.6463 5.63164L21.2935 6.25541L19.0234 8.44314Z" fill="black"/>
<path d="M5.31869 5.32877C5.15453 5.39205 5.01852 5.59545 5.01852 5.7853C5.01852 5.91638 5.05135 5.9887 5.16391 6.09266L5.30931 6.23279H11.0079H16.7065L16.8425 6.10171C17.0958 5.85762 17.0113 5.44177 16.6877 5.33329C16.5095 5.27453 5.46878 5.27001 5.31869 5.32877Z" fill="black"/>
<path d="M5.31869 11.1145C5.15453 11.1778 5.01852 11.3812 5.01852 11.5711C5.01852 11.7022 5.05135 11.7745 5.16391 11.8784L5.30931 12.0186H8.48926H11.6692L11.8146 11.901C11.9928 11.7564 12.0444 11.5394 11.9413 11.3451C11.7865 11.0603 11.899 11.0693 8.50334 11.0739C6.80548 11.0739 5.37028 11.0919 5.31869 11.1145Z" fill="black"/>
</svg>
