<svg width="20" height="21" viewBox="0 0 20 21" fill="none" xmlns="http://www.w3.org/2000/svg">
<path d="M1.41879 0.526423C0.75434 0.633066 0.164157 1.2516 0.039085 1.97251C0.0117255 2.12181 0 5.29124 0 11.1865C0 20.0293 0 20.1701 0.07817 20.3066C0.164157 20.4645 0.347856 20.537 0.527647 20.4815C0.609726 20.4602 1.27417 19.7606 2.69686 18.2079L4.74883 15.9684H10.7875C15.8568 15.9684 16.8652 15.9556 17.0606 15.9087C17.6195 15.7636 18.0612 15.3157 18.2566 14.6972C18.327 14.4711 18.3309 14.2791 18.3309 10.5381V6.60935L19.0344 5.83726C19.5894 5.22299 19.7575 5.00971 19.8356 4.82201C20.1327 4.11817 20.0232 3.39299 19.5386 2.84698C19.2924 2.57397 19.0031 2.41614 18.6318 2.35216L18.3387 2.30097L18.3191 2.07062C18.2722 1.59712 17.9205 1.01272 17.5257 0.761038C17.0958 0.488031 17.7602 0.509359 9.30223 0.500828C5.07714 0.496563 1.53213 0.509359 1.41879 0.526423ZM17.0215 1.50327C17.3303 1.65684 17.5101 1.9853 17.5101 2.40335V2.59957L15.1454 5.17607L12.7808 7.75684L8.59479 7.77817L4.40879 7.7995L4.29544 7.94026C4.13519 8.13649 4.1391 8.36257 4.30326 8.54173L4.42442 8.67397H8.25084C10.3536 8.67397 12.0773 8.67824 12.0773 8.68677C12.0773 8.6953 11.9913 9.17733 11.8818 9.76173C11.7763 10.3461 11.6864 10.8964 11.6864 10.9903C11.6864 11.2163 11.8623 11.404 12.0734 11.404C12.1867 11.404 13.7814 11.0756 14.266 10.9561C14.3247 10.9391 14.9774 10.2608 15.935 9.21572L17.5101 7.50089V10.9135C17.5101 14.1341 17.5062 14.3346 17.4358 14.4967C17.3498 14.7057 17.1818 14.8934 17.002 14.983C16.8769 15.0427 16.2672 15.0512 10.6311 15.064L4.40097 15.0726L2.61088 17.0263L0.820785 18.9757L0.828602 10.5296L0.840327 2.08341L0.926314 1.90425C1.01621 1.72083 1.196 1.54593 1.36797 1.46915C1.43051 1.44356 4.20164 1.42649 9.16543 1.42649C16.533 1.42223 16.873 1.42649 17.0215 1.50327ZM18.7608 3.32048C18.8781 3.38873 19.0461 3.57642 19.1126 3.72572C19.1829 3.87075 19.1751 4.23334 19.0969 4.4125C19.0618 4.49355 18.8781 4.72817 18.6904 4.93292L18.3504 5.30404L17.811 4.71537L17.2717 4.1267L17.6586 3.71719C17.9791 3.3802 18.0768 3.29915 18.2175 3.26502C18.409 3.2181 18.6123 3.23943 18.7608 3.32048ZM15.8529 8.02984L13.9651 10.0902L13.3084 10.2352C12.945 10.3163 12.644 10.3717 12.6362 10.3675C12.6323 10.3589 12.6831 10.0305 12.7573 9.63376L12.8902 8.91712L14.778 6.85677L16.6698 4.79215L17.2052 5.37656L17.7446 5.96523L15.8529 8.02984Z" fill="#969696"/>
</svg>
