<svg width="19" height="25" viewBox="0 0 19 25" fill="none" xmlns="http://www.w3.org/2000/svg">
<path d="M2.41636 0.179232L1.15754 0.191782L0.992831 0.361193L0.828125 0.530605V12.3643V24.1981L0.992831 24.3675L1.16342 24.5432L9.82812 24.5369H18.4987L18.6634 24.3675L18.8281 24.1981V12.3643V0.530605L18.6634 0.361193L18.4987 0.191782L11.0928 0.179232C7.01636 0.166683 3.11048 0.166683 2.41636 0.179232ZM3.18107 12.3643V23.282H2.59283H2.0046V12.3643V1.44668H2.59283H3.18107V12.3643ZM17.6517 12.3643V23.282H11.034H4.41636V12.3643V1.44668H11.034H17.6517V12.3643Z" fill="black"/>
<path d="M7.12812 4.10703C6.83401 4.28271 6.83401 4.30154 6.82812 7.20036C6.82812 9.17055 6.84577 9.95487 6.89871 10.0741C7.04577 10.4255 6.97518 10.4192 11.034 10.4192C15.0928 10.4192 15.0222 10.4255 15.1693 10.0741C15.2222 9.95487 15.2399 9.17055 15.2399 7.21291C15.2399 4.28899 15.234 4.25134 14.9164 4.09448C14.6811 3.98154 7.32224 3.99409 7.12812 4.10703ZM14.0634 7.21918V9.16428H11.034H8.0046V7.21918V5.27409H11.034H14.0634V7.21918Z" fill="black"/>
<path d="M7.1046 16.9511C6.98107 17.0264 6.82812 17.3338 6.82812 17.5095C6.82812 17.7166 6.98107 17.9801 7.15165 18.0617C7.3693 18.1683 14.6987 18.1683 14.9164 18.0617C15.0869 17.9801 15.2399 17.7166 15.2399 17.5095C15.2399 17.3275 15.0811 17.0264 14.9517 16.9448C14.7928 16.8569 7.25165 16.8632 7.1046 16.9511Z" fill="black"/>
<path d="M7.04578 19.58C6.85754 19.7432 6.78695 20.0757 6.88695 20.3392C7.03401 20.722 6.93401 20.7094 11.0281 20.7094C13.7987 20.7094 14.8046 20.6906 14.9164 20.6341C15.087 20.5526 15.2399 20.289 15.2399 20.082C15.2399 19.9 15.0811 19.5988 14.9517 19.5173C14.8752 19.4796 13.5222 19.4545 11.0164 19.4545C7.25754 19.4545 7.19283 19.4545 7.04578 19.58Z" fill="black"/>
</svg>
