<svg width="37" height="36" viewBox="0 0 37 36" fill="none" xmlns="http://www.w3.org/2000/svg">
<path d="M36.6162 18C36.6162 15.1961 35.966 12.5369 34.8097 10.1649C34.7908 10.0164 34.7276 9.89346 34.6301 9.80599C33.1247 6.88542 30.8426 4.42392 28.0622 2.69719C27.9983 2.62913 27.9164 2.57864 27.8203 2.54939C25.1227 0.932273 21.9733 0 18.6162 0C15.8124 0 13.1531 0.65025 10.7811 1.80654C10.6326 1.82538 10.5097 1.88859 10.4222 1.98612C4.6127 4.98052 0.616211 11.0461 0.616211 18C0.616211 20.8039 1.26646 23.4631 2.42275 25.8351C2.44159 25.9836 2.5048 26.1065 2.60233 26.194C5.59673 32.0035 11.6623 36 18.6162 36C21.4223 36 24.0834 35.3487 26.4568 34.1906C26.5715 34.1703 26.6813 34.1165 26.7684 34.0353C32.6005 31.0485 36.6162 24.9705 36.6162 18ZM26.1627 32.9972C22.6157 32.9022 19.5746 30.2079 19.2461 26.9779C23.7411 26.6688 27.3155 23.0769 27.5976 18.5744C30.7757 18.2946 33.5727 15.753 34.4951 12.5287C35.0912 14.2458 35.4163 16.0867 35.4163 18.0001C35.4162 24.5305 31.6395 30.2209 26.1627 32.9972ZM18.6162 10.2C22.9362 10.2 26.4162 13.68 26.4162 18C26.4162 22.32 22.9362 25.8 18.6162 25.8C14.2962 25.8 10.8162 22.32 10.8162 18C10.8162 13.68 14.2962 10.2 18.6162 10.2ZM27.0162 3.46662V5.4H25.2162C24.8562 5.4 24.6163 5.63998 24.6163 5.99998V7.79998H23.4162C23.0562 7.79998 22.8163 8.03995 22.8163 8.39995C22.8163 8.75995 23.0562 8.99993 23.4162 8.99993H25.2162C25.5762 8.99993 25.8162 8.75995 25.8162 8.39995V6.59995H27.6162C27.9762 6.59995 28.2162 6.35998 28.2162 5.99998V4.23478C30.4876 5.82659 32.3515 7.96416 33.6134 10.4535C33.5185 14.0006 30.8241 17.0416 27.5941 17.3701C27.285 12.8751 23.6931 9.30073 19.1906 9.01863C18.9108 5.84051 16.3692 3.04348 13.1449 2.12112C14.8619 1.52508 16.7029 1.20002 18.6162 1.20002C21.6707 1.20002 24.5413 2.02669 27.0162 3.46662ZM11.0697 3.00277C14.6168 3.09776 17.6579 5.79213 17.9864 9.02215C13.4913 9.33124 9.91701 12.9231 9.63491 17.4256C6.45679 17.7054 3.65976 20.247 2.7374 23.4713C2.14129 21.7543 1.81623 19.9133 1.81623 18C1.81623 11.4695 5.59293 5.77905 11.0697 3.00277ZM3.61898 25.5465C3.71397 21.9994 6.40834 18.9584 9.63836 18.6299C9.94745 23.1249 13.5393 26.6992 18.0418 26.9813C18.3216 30.1594 20.8633 32.9565 24.0875 33.8788C22.3704 34.4749 20.5296 34.8 18.6161 34.8C12.0857 34.8 6.39527 31.0233 3.61898 25.5465Z" fill="#585757"/>
<path d="M18.0164 15H19.2165C19.8765 15 20.4165 14.46 20.4165 13.8V12.6C20.4165 11.94 19.8765 11.4 19.2165 11.4H18.0164C17.3564 11.4 16.8164 11.94 16.8164 12.6V13.8001C16.8164 14.46 17.3564 15 18.0164 15ZM18.0164 12.6H19.2165V13.8001H18.0164V12.6Z" fill="#585757"/>
<path d="M18.0164 24.6001H19.2165C19.8765 24.6001 20.4165 24.0601 20.4165 23.4V22.2C20.4165 21.54 19.8765 21 19.2165 21H18.0164C17.3564 21 16.8164 21.54 16.8164 22.2V23.4C16.8164 24.0601 17.3564 24.6001 18.0164 24.6001ZM18.0164 22.2H19.2165V23.4H18.0164V22.2Z" fill="#585757"/>
<path d="M22.8162 19.8H24.0163C24.6763 19.8 25.2163 19.26 25.2163 18.6V17.4C25.2163 16.74 24.6763 16.2 24.0163 16.2H22.8162C22.1562 16.2 21.6162 16.74 21.6162 17.4V18.6C21.6163 19.26 22.1563 19.8 22.8162 19.8ZM22.8162 17.4H24.0163V18.6001H22.8162V17.4Z" fill="#585757"/>
<path d="M12.0161 17.4001V18.6001C12.0161 19.2601 12.5561 19.8001 13.2161 19.8001H14.4162C15.0762 19.8001 15.6162 19.2601 15.6162 18.6001V17.4001C15.6162 16.7401 15.0762 16.2001 14.4162 16.2001H13.2161C12.5561 16.2001 12.0161 16.7401 12.0161 17.4001ZM13.2161 17.4001H14.4162V18.6001H13.2161V17.4001Z" fill="#585757"/>
</svg>
