<svg width="15" height="18" viewBox="0 0 15 18" fill="none" xmlns="http://www.w3.org/2000/svg">
<path d="M13.9745 12.3432C12.9508 11.4581 12.2188 9.10626 12.2188 6.34377C12.2188 4.25276 10.8747 2.47998 9.00471 1.8308C8.8788 1.07641 8.22749 0.5 7.43751 0.5C6.64755 0.5 5.99623 1.07641 5.87031 1.83078C4.00031 2.47996 2.65626 4.25276 2.65626 6.34377C2.65626 9.10575 1.92473 11.457 0.900473 12.3432C0.328854 12.8378 0 13.556 0 14.3125C0 15.1928 0.713466 15.9063 1.59374 15.9063H5.84374C5.84374 16.7865 6.55721 17.5 7.43748 17.5C8.31776 17.5 9.03122 16.7865 9.03122 15.9063H13.2812C14.1615 15.9063 14.875 15.1928 14.875 14.3125C14.875 13.5566 14.5467 12.8378 13.9745 12.3432ZM1.59374 14.3125C1.59374 14.0193 1.72125 13.7404 1.94277 13.5486C3.36598 12.3182 4.24998 9.55728 4.24998 6.34374C4.24998 4.58584 5.67958 3.15623 7.43748 3.15623C9.19538 3.15623 10.625 4.58584 10.625 6.34374C10.625 9.55728 11.509 12.3182 12.9322 13.5486C13.1543 13.7409 13.2812 14.0192 13.2812 14.3125H1.59374Z" fill="white"/>
</svg>
