<svg width="54" height="53" viewBox="0 0 54 53" fill="none" xmlns="http://www.w3.org/2000/svg">
<path d="M43.7433 28.3768C43.3173 28.3768 42.972 28.7222 42.972 29.1481C42.972 29.6882 42.5327 30.1275 41.9927 30.1275C41.4527 30.1275 41.0133 29.6882 41.0133 29.1481C41.0133 28.7221 40.668 28.3768 40.242 28.3768C39.816 28.3768 39.4707 28.7222 39.4707 29.1481C39.4707 30.5388 40.6021 31.6701 41.9927 31.6701C43.3832 31.6701 44.5146 30.5387 44.5146 29.1481C44.5146 28.722 44.1693 28.3768 43.7433 28.3768Z" fill="#74788D"/>
<path d="M50.9825 28.5026L48.8116 27.8072C48.5335 27.7181 48.3144 27.4961 48.2254 27.2134C47.7679 25.7587 47.0775 24.393 46.1733 23.1542C45.7612 22.5895 45.3029 22.0503 44.8023 21.5369C45.1226 20.1319 45.2967 18.5418 45.2741 17.1681C45.2418 15.2028 44.8491 14.0502 44.0735 13.644C43.6559 13.4249 42.3847 12.7595 35.5043 15.9091C35.3414 15.9836 35.1892 16.0754 35.0483 16.1806C34.5845 16.056 34.1104 15.9407 33.6334 15.8372C33.5759 15.8246 33.5167 15.8136 33.4588 15.8013C34.0164 14.5834 34.3419 13.2605 34.4031 11.895C34.4222 11.4693 34.0927 11.1089 33.667 11.0899C33.2425 11.0688 32.8809 11.4003 32.862 11.8259C32.7615 14.0713 31.83 16.1839 30.2394 17.7747C29.289 18.725 28.1762 19.4154 26.9903 19.8501C24.9335 19.5615 22.8386 19.5615 20.7818 19.8501C19.5957 19.4154 18.483 18.725 17.5327 17.7747C15.8356 16.0776 14.901 13.8213 14.901 11.4213C14.901 9.02117 15.8356 6.76494 17.5327 5.06791C19.2297 3.37077 21.4861 2.43613 23.886 2.43613C26.2859 2.43613 28.5424 3.37077 30.2394 5.06791C30.9214 5.74987 31.4849 6.5281 31.9144 7.38076C32.106 7.76128 32.5698 7.91448 32.9503 7.72277C33.3308 7.53127 33.4839 7.06741 33.2923 6.68699C32.7889 5.68714 32.1288 4.77548 31.3304 3.97696C29.3419 1.98852 26.6981 0.893433 23.8861 0.893433C21.0741 0.893433 18.4303 1.98852 16.4419 3.97696C14.4535 5.96549 13.3584 8.60918 13.3584 11.4212C13.3584 14.2332 14.4535 16.877 16.4419 18.8654C17.0155 19.439 17.6395 19.9322 18.2995 20.3455C18.2997 20.3455 18.2999 20.3454 18.3001 20.3454C17.8205 20.47 17.3446 20.6099 16.8739 20.7673C16.4699 20.9024 16.2519 21.3393 16.3869 21.7434C16.5219 22.1475 16.9591 22.3655 17.363 22.2305C21.5695 20.8242 26.2028 20.8242 30.4093 22.2305C30.4904 22.2576 30.5728 22.2704 30.6539 22.2704C30.9765 22.2704 31.2774 22.0663 31.3853 21.7434C31.5204 21.3394 31.3024 20.9024 30.8984 20.7673C30.4277 20.6099 29.9517 20.4699 29.4721 20.3454C29.4724 20.3454 29.4726 20.3455 29.4728 20.3455C30.1329 19.9322 30.7568 19.439 31.3304 18.8654C31.8378 18.358 32.2857 17.8038 32.6746 17.2149C32.8872 17.2562 33.0983 17.2995 33.3063 17.3447C33.5833 17.4048 33.859 17.4694 34.1323 17.5372C34.1237 17.5707 34.1149 17.6042 34.1078 17.6382C33.7316 19.4233 33.756 21.0022 34.1803 22.3306C34.5617 23.5246 35.25 24.492 36.2258 25.2059C37.376 26.0473 38.7645 26.4108 40.0224 26.4108C40.969 26.4108 41.8417 26.2048 42.4827 25.8417C43.2077 25.4311 43.8152 24.5658 44.296 23.2667C44.5182 23.5261 44.7289 23.7918 44.9274 24.0638C45.7325 25.1667 46.3471 26.3822 46.7541 27.6763C46.9931 28.4365 47.5864 29.0346 48.3412 29.2765L50.5121 29.9719C51.0818 30.1544 51.4645 30.6787 51.4645 31.2768V34.8766C51.4645 35.4747 51.0818 35.999 50.5121 36.1815L47.0144 37.3018C46.4548 37.4812 45.9812 37.8658 45.6809 38.3848C44.3068 40.7597 42.1463 42.7249 39.2591 44.226C38.9256 44.3996 38.6946 44.71 38.625 45.0779L37.5047 51.0097C37.4738 51.1731 37.3306 51.2917 37.1643 51.2917H33.5219C33.3555 51.2917 33.2124 51.173 33.1814 51.0097L32.5609 47.7315C32.4388 47.0865 31.8339 46.658 31.1827 46.7566C29.6138 46.9939 27.997 47.1141 26.3778 47.1141C25.173 47.1141 23.9837 47.0469 22.8427 46.9143C22.2118 46.8417 21.624 47.2718 21.5061 47.8948L20.9165 51.0097C20.8855 51.1731 20.7424 51.2917 20.576 51.2917H16.9336C16.7673 51.2917 16.6241 51.173 16.5927 51.0072L15.5141 45.4047C15.4446 45.0438 15.2179 44.7369 14.8918 44.5626C9.97022 41.9353 7.36887 37.5458 7.36887 31.869C7.36887 29.0008 7.99638 26.4646 9.23391 24.3305C10.3887 22.339 12.0754 20.6923 14.2471 19.4362C14.6158 19.2228 14.7418 18.751 14.5285 18.3822C14.3153 18.0135 13.8435 17.8877 13.4746 18.1007C9.26372 20.5367 6.72396 24.2947 6.02472 29.0678V29.0677C5.9505 29.061 5.87617 29.0545 5.80216 29.0469C5.81562 28.5319 5.72245 28.0122 5.51956 27.5079C5.07206 26.3955 4.15284 25.5927 3.17762 25.4626C2.40912 25.3597 1.67779 25.6859 1.17025 26.3565C0.434355 27.3289 0.55433 28.0985 0.784445 28.5728C1.17294 29.3733 2.17155 29.9395 3.82874 30.2955C3.78319 30.3637 3.73309 30.4322 3.67822 30.5011C2.69907 31.7291 1.54549 32.0006 0.796453 32.0262C0.357961 32.041 0.00683594 32.393 0.00683594 32.8318V32.8356C0.00683594 33.2684 0.348334 33.6213 0.780719 33.6411C0.8361 33.6437 0.893965 33.645 0.954211 33.645C1.902 33.645 3.42316 33.2955 4.8846 31.4629C5.11533 31.1737 5.30332 30.8686 5.44782 30.5532C5.59337 30.5697 5.73322 30.5838 5.86717 30.5962C5.86717 30.5959 5.86717 30.5957 5.86727 30.5954C5.84098 31.0134 5.82638 31.4375 5.82638 31.869C5.82638 35.0809 6.59209 37.9447 8.10207 40.3811C9.49435 42.6274 11.4878 44.4667 14.0289 45.8499L15.0775 51.2964C15.2461 52.1875 16.0267 52.8343 16.9336 52.8343H20.576C21.4829 52.8343 22.2635 52.1875 22.4321 51.2964L22.9653 48.48C24.0725 48.5973 25.2188 48.6567 26.3776 48.6567C27.9676 48.6567 29.5558 48.5459 31.1036 48.3273L31.6655 51.2966C31.8343 52.1877 32.6149 52.8344 33.5217 52.8344H37.1641C38.071 52.8344 38.8516 52.1876 39.0203 51.2962L40.1111 45.521C43.1925 43.8915 45.5152 41.751 47.016 39.1574C47.1241 38.9704 47.2907 38.8333 47.4849 38.771L50.9825 37.6507C52.1933 37.2626 53.0068 36.1479 53.0068 34.8764V31.2766C53.0068 30.0052 52.1933 28.8905 50.9825 28.5026ZM43.6157 19.3356C43.3188 21.8744 42.5225 24.0461 41.7223 24.4993C40.8128 25.0145 38.713 25.114 37.1364 23.9607C35.558 22.8061 35.0327 20.7298 35.617 17.9562C35.617 17.9561 35.617 17.9561 35.617 17.9561C35.6757 17.6776 35.8737 17.4366 36.1464 17.3117C40.008 15.5441 42.2343 14.966 43.0614 14.966C43.1862 14.966 43.2792 14.9791 43.3411 15.0033C43.5895 15.2681 43.9154 16.7733 43.6157 19.3356ZM2.17249 27.8992C2.09268 27.7346 2.28107 27.4453 2.40053 27.2873C2.58986 27.0372 2.76429 26.9861 2.89606 26.9861C2.92391 26.9861 2.94989 26.9884 2.9737 26.9916C3.32834 27.0389 3.82522 27.4291 4.08846 28.0835C4.15046 28.2375 4.231 28.4927 4.24984 28.8109C3.18207 28.5897 2.3525 28.2707 2.17249 27.8992Z" fill="#74788D"/>
<path d="M24.6352 10.5371V7.77699C25.5871 7.845 25.9407 8.28008 26.267 8.28008C26.6749 8.28008 26.8653 7.76343 26.8653 7.50505C26.8653 6.83872 25.5598 6.55323 24.6352 6.526V6.15873C24.6352 5.99559 24.4312 5.84601 24.2273 5.84601C23.996 5.84601 23.8329 5.99559 23.8329 6.15873V6.55302C22.5411 6.68904 21.2493 7.36893 21.2493 9.08222C21.2493 10.8227 22.6091 11.3123 23.8329 11.7473V14.9428C22.4459 14.834 22.0788 13.8821 21.6301 13.8821C21.2901 13.8821 21.0046 14.3309 21.0046 14.6573C21.0046 15.3235 22.1468 16.2345 23.8329 16.2618V16.6833C23.8329 16.8464 23.9961 16.996 24.2273 16.996C24.4313 16.996 24.6352 16.8464 24.6352 16.6833V16.221C26.1038 16.0169 27.11 15.0923 27.11 13.4198C27.11 11.5706 25.8182 10.9722 24.6352 10.5371ZM23.9145 10.2789C23.1938 10.0069 22.6091 9.72143 22.6091 8.94641C22.6091 8.23929 23.153 7.89934 23.9145 7.80421V10.2789ZM24.5536 14.9155V12.0465C25.2198 12.332 25.7501 12.7127 25.7501 13.5693C25.7501 14.3445 25.2878 14.7796 24.5536 14.9155Z" fill="#74788D"/>
</svg>
