<svg width="28" height="34" viewBox="0 0 28 34" fill="none" xmlns="http://www.w3.org/2000/svg">
<path d="M22.7162 14.1667H8.54958C8.23678 14.1667 7.98291 14.42 7.98291 14.7334C7.98291 15.0468 8.23678 15.3001 8.54958 15.3001H22.7162C23.029 15.3001 23.2829 15.0468 23.2829 14.7334C23.2829 14.42 23.029 14.1667 22.7162 14.1667Z" fill="#585757"/>
<path d="M8.54958 10.7666H14.2162C14.529 10.7666 14.7829 10.5133 14.7829 10.2C14.7829 9.8866 14.529 9.6333 14.2162 9.6333H8.54958C8.23678 9.6333 7.98291 9.8866 7.98291 10.2C7.98291 10.5133 8.23678 10.7666 8.54958 10.7666Z" fill="#585757"/>
<path d="M22.7162 18.7H8.54958C8.23678 18.7 7.98291 18.9533 7.98291 19.2666C7.98291 19.58 8.23678 19.8333 8.54958 19.8333H22.7162C23.029 19.8333 23.2829 19.58 23.2829 19.2666C23.2829 18.9533 23.029 18.7 22.7162 18.7Z" fill="#585757"/>
<path d="M22.7162 23.2334H8.54958C8.23678 23.2334 7.98291 23.4867 7.98291 23.8001C7.98291 24.1134 8.23678 24.3667 8.54958 24.3667H22.7162C23.029 24.3667 23.2829 24.1134 23.2829 23.8001C23.2829 23.4867 23.029 23.2334 22.7162 23.2334Z" fill="#585757"/>
<path d="M22.7162 27.7666H8.54958C8.23678 27.7666 7.98291 28.0199 7.98291 28.3333C7.98291 28.6466 8.23678 28.8999 8.54958 28.8999H22.7162C23.029 28.8999 23.2829 28.6466 23.2829 28.3333C23.2829 28.0199 23.029 27.7666 22.7162 27.7666Z" fill="#585757"/>
<path d="M24.9829 8.2654V0H0.616211V31.1667H3.44954V34H27.8162V11.0987L24.9829 8.2654ZM19.8829 4.76793L24.9829 9.86793L25.8816 10.7667H19.8829V4.76793ZM1.74954 30.0333V1.13333H23.8495V7.13207L19.5508 2.83333H3.44954V30.0333H1.74954ZM4.58288 32.8667V31.1667V3.96667H18.7495V11.9H26.6829V32.8667H4.58288Z" fill="#585757"/>
</svg>
