<svg width="20" height="21" viewBox="0 0 20 21" fill="none" xmlns="http://www.w3.org/2000/svg">
<g clip-path="url(#clip0_7174_333)">
<path d="M14.1666 18V16.3333C14.1666 15.4493 13.8155 14.6014 13.1903 13.9763C12.5652 13.3512 11.7174 13 10.8333 13H4.16665C3.28259 13 2.43475 13.3512 1.80962 13.9763C1.1845 14.6014 0.833313 15.4493 0.833313 16.3333V18" stroke="#969696" stroke-width="2" stroke-linecap="round" stroke-linejoin="round"/>
<path d="M7.50002 9.66667C9.34097 9.66667 10.8334 8.17428 10.8334 6.33333C10.8334 4.49238 9.34097 3 7.50002 3C5.65907 3 4.16669 4.49238 4.16669 6.33333C4.16669 8.17428 5.65907 9.66667 7.50002 9.66667Z" stroke="#969696" stroke-width="2" stroke-linecap="round" stroke-linejoin="round"/>
<path d="M19.1667 18V16.3333C19.1661 15.5948 18.9203 14.8773 18.4678 14.2936C18.0153 13.7099 17.3818 13.293 16.6667 13.1083" stroke="#969696" stroke-width="2" stroke-linecap="round" stroke-linejoin="round"/>
<path d="M13.3333 3.10834C14.0503 3.29192 14.6858 3.70892 15.1397 4.2936C15.5935 4.87827 15.8398 5.59736 15.8398 6.3375C15.8398 7.07765 15.5935 7.79674 15.1397 8.38141C14.6858 8.96609 14.0503 9.38309 13.3333 9.56667" stroke="#969696" stroke-width="2" stroke-linecap="round" stroke-linejoin="round"/>
</g>
<defs>
<clipPath id="clip0_7174_333">
<rect width="20" height="20" fill="white" transform="translate(0 0.5)"/>
</clipPath>
</defs>
</svg>
