<svg width="124" height="57" viewBox="0 0 124 57" fill="none" xmlns="http://www.w3.org/2000/svg">
<path d="M34.1449 0.195648V51.413H44.6847V17.9517H45.1113L58.4115 51.163H65.5885L78.8887 18.0767H79.3153V51.413H89.8551V0.195648H76.4545L62.3011 34.6073H61.6989L47.5455 0.195648H34.1449Z" fill="#007AFF"/>
<path d="M24.1549 26.316H32.6717C32.5486 18.8373 26.3919 13.6739 17.0336 13.6739C7.81906 13.6739 1.06717 18.7553 1.10821 26.3774C1.08769 32.5653 5.45897 36.1099 12.5597 37.8106L17.1362 38.958C21.7128 40.0644 24.2575 41.3757 24.2781 44.2033C24.2575 47.2767 21.3434 49.3667 16.8284 49.3667C12.2109 49.3667 8.88622 47.2357 8.59891 43.0354H0C0.225747 52.1123 6.73137 56.8044 16.931 56.8044C27.1923 56.8044 33.2259 51.9074 33.2464 44.2238C33.2259 37.2369 27.9516 33.5283 20.6456 31.8891L16.8695 30.9876C13.2165 30.1475 10.1586 28.7952 10.2202 25.7832C10.2202 23.0786 12.6213 21.0911 16.9721 21.0911C21.2202 21.0911 23.8266 23.0171 24.1549 26.316Z" fill="#ABD3FF"/>
<path d="M99.8451 26.316H91.3283C91.4514 18.8373 97.6081 13.6739 106.966 13.6739C116.181 13.6739 122.933 18.7553 122.892 26.3774C122.912 32.5653 118.541 36.1099 111.44 37.8106L106.864 38.958C102.287 40.0644 99.7425 41.3757 99.7219 44.2033C99.7425 47.2767 102.657 49.3667 107.172 49.3667C111.789 49.3667 115.114 47.2357 115.401 43.0354H124C123.774 52.1123 117.269 56.8044 107.069 56.8044C96.8077 56.8044 90.7741 51.9074 90.7536 44.2238C90.7741 37.2369 96.0484 33.5283 103.354 31.8891L107.131 30.9876C110.784 30.1475 113.841 28.7952 113.78 25.7832C113.78 23.0786 111.379 21.0911 107.028 21.0911C102.78 21.0911 100.173 23.0171 99.8451 26.316Z" fill="#ABD3FF"/>
</svg>
