<svg width="312" height="123" viewBox="0 0 312 123" fill="none" xmlns="http://www.w3.org/2000/svg">
<rect width="312" height="123" rx="8" fill="white"/>
<rect x="5.75" y="5.75" width="300.5" height="111.5" rx="7.25" stroke="#585757" stroke-width="1.5" stroke-dasharray="5 5"/>
<path d="M166 40V44C166 44.5304 165.789 45.0391 165.414 45.4142C165.039 45.7893 164.53 46 164 46H150C149.47 46 148.961 45.7893 148.586 45.4142C148.211 45.0391 148 44.5304 148 44V40" stroke="#0085FF" stroke-width="2" stroke-linecap="round" stroke-linejoin="round"/>
<path d="M166 40V44C166 44.5304 165.789 45.0391 165.414 45.4142C165.039 45.7893 164.53 46 164 46H150C149.47 46 148.961 45.7893 148.586 45.4142C148.211 45.0391 148 44.5304 148 44V40" stroke="black" stroke-opacity="0.6" stroke-width="2" stroke-linecap="round" stroke-linejoin="round"/>
<path d="M162 33L157 28L152 33" stroke="#0085FF" stroke-width="2" stroke-linecap="round" stroke-linejoin="round"/>
<path d="M162 33L157 28L152 33" stroke="black" stroke-opacity="0.6" stroke-width="2" stroke-linecap="round" stroke-linejoin="round"/>
<path d="M157 28V40" stroke="#0085FF" stroke-width="2" stroke-linecap="round" stroke-linejoin="round"/>
<path d="M157 28V40" stroke="black" stroke-opacity="0.6" stroke-width="2" stroke-linecap="round" stroke-linejoin="round"/>
<path d="M77.7889 67.3281C77.546 65.3125 76.0204 64.1534 74.0005 64.1534C71.6951 64.1534 69.9352 65.7812 69.9352 68.6364C69.9352 71.483 71.6653 73.1193 74.0005 73.1193C76.2377 73.1193 77.5886 71.6321 77.7889 70.0256L75.9224 70.017C75.7477 70.9503 75.0147 71.4872 74.0304 71.4872C72.7051 71.4872 71.8059 70.5028 71.8059 68.6364C71.8059 66.821 72.6923 65.7855 74.0431 65.7855C75.0531 65.7855 75.7818 66.3693 75.9224 67.3281H77.7889ZM79.0779 73H80.8933V66.4545H79.0779V73ZM79.9899 65.6108C80.5311 65.6108 80.9743 65.1974 80.9743 64.6903C80.9743 64.1875 80.5311 63.7741 79.9899 63.7741C79.4529 63.7741 79.0098 64.1875 79.0098 64.6903C79.0098 65.1974 79.4529 65.6108 79.9899 65.6108ZM85.829 66.4545H84.5975V64.8864H82.7821V66.4545H81.8873V67.8182H82.7821V71.2273C82.7736 72.5099 83.6472 73.1449 84.964 73.0895C85.4327 73.0724 85.7651 72.9787 85.9483 72.919L85.6628 71.5682C85.5733 71.5852 85.3816 71.6278 85.2111 71.6278C84.8489 71.6278 84.5975 71.4915 84.5975 70.9886V67.8182H85.829V66.4545ZM87.0115 73H88.8269V66.4545H87.0115V73ZM87.9235 65.6108C88.4647 65.6108 88.9078 65.1974 88.9078 64.6903C88.9078 64.1875 88.4647 63.7741 87.9235 63.7741C87.3865 63.7741 86.9434 64.1875 86.9434 64.6903C86.9434 65.1974 87.3865 65.6108 87.9235 65.6108ZM90.247 73H95.7484V71.5511H92.6291V71.5043L95.6376 67.6349V66.4545H90.3578V67.9034H93.4515V67.9503L90.247 71.9176V73ZM99.932 73.1278C101.551 73.1278 102.642 72.3395 102.898 71.125L101.219 71.0142C101.036 71.5128 100.567 71.7727 99.9618 71.7727C99.0542 71.7727 98.4789 71.1719 98.4789 70.196V70.1918H102.936V69.6932C102.936 67.4688 101.59 66.3693 99.8596 66.3693C97.9334 66.3693 96.6848 67.7372 96.6848 69.7571C96.6848 71.8324 97.9164 73.1278 99.932 73.1278ZM98.4789 69.0668C98.5172 68.321 99.084 67.7244 99.8894 67.7244C100.678 67.7244 101.223 68.2869 101.227 69.0668H98.4789ZM105.936 69.2159C105.941 68.3722 106.443 67.8778 107.176 67.8778C107.905 67.8778 108.344 68.3551 108.34 69.1562V73H110.155V68.8324C110.155 67.3068 109.26 66.3693 107.896 66.3693C106.925 66.3693 106.222 66.8466 105.928 67.6094H105.851V66.4545H104.121V73H105.936V69.2159ZM117.032 68.321C116.87 67.1151 115.898 66.3693 114.245 66.3693C112.57 66.3693 111.466 67.1449 111.471 68.4062C111.466 69.3864 112.084 70.0213 113.363 70.277L114.496 70.5028C115.067 70.6179 115.327 70.8267 115.336 71.1548C115.327 71.5426 114.905 71.8196 114.27 71.8196C113.623 71.8196 113.192 71.5426 113.081 71.0099L111.296 71.1037C111.466 72.3565 112.532 73.1278 114.266 73.1278C115.962 73.1278 117.177 72.2628 117.181 70.9716C117.177 70.0256 116.559 69.4588 115.289 69.1989L114.104 68.9602C113.495 68.8281 113.269 68.6193 113.273 68.304C113.269 67.9119 113.712 67.6562 114.275 67.6562C114.905 67.6562 115.28 68.0014 115.37 68.4233L117.032 68.321ZM120.139 69.2159C120.144 68.3722 120.659 67.8778 121.401 67.8778C122.138 67.8778 122.573 68.3509 122.568 69.1562V73H124.384V68.8324C124.388 67.2983 123.485 66.3693 122.121 66.3693C121.128 66.3693 120.463 66.8381 120.165 67.6094H120.088V64.2727H118.324V73H120.139V69.2159ZM125.812 73H127.628V66.4545H125.812V73ZM126.724 65.6108C127.265 65.6108 127.709 65.1974 127.709 64.6903C127.709 64.1875 127.265 63.7741 126.724 63.7741C126.187 63.7741 125.744 64.1875 125.744 64.6903C125.744 65.1974 126.187 65.6108 126.724 65.6108ZM129.082 75.4545H130.897V71.9517H130.953C131.204 72.4972 131.754 73.1065 132.811 73.1065C134.302 73.1065 135.465 71.9261 135.465 69.7358C135.465 67.4858 134.251 66.3693 132.815 66.3693C131.72 66.3693 131.195 67.0213 130.953 67.554H130.872V66.4545H129.082V75.4545ZM130.859 69.7273C130.859 68.5597 131.353 67.8139 132.235 67.8139C133.134 67.8139 133.612 68.5938 133.612 69.7273C133.612 70.8693 133.126 71.6619 132.235 71.6619C131.362 71.6619 130.859 70.8949 130.859 69.7273ZM143.254 63.8636H141.69L138.878 74.3125H140.442L143.254 63.8636ZM150.034 73C152.693 73 154.304 71.3551 154.304 68.6278C154.304 65.9091 152.693 64.2727 150.059 64.2727H146.94V73H150.034ZM148.785 71.419V65.8537H149.961C151.598 65.8537 152.463 66.6889 152.463 68.6278C152.463 70.5753 151.598 71.419 149.957 71.419H148.785ZM155.637 73H157.452V69.2969C157.452 68.4915 158.04 67.9375 158.841 67.9375C159.093 67.9375 159.438 67.9801 159.608 68.0355V66.4247C159.446 66.3864 159.22 66.3608 159.037 66.3608C158.304 66.3608 157.703 66.7869 157.465 67.5966H157.396V66.4545H155.637V73ZM160.547 73H162.362V66.4545H160.547V73ZM161.459 65.6108C162 65.6108 162.443 65.1974 162.443 64.6903C162.443 64.1875 162 63.7741 161.459 63.7741C160.922 63.7741 160.479 64.1875 160.479 64.6903C160.479 65.1974 160.922 65.6108 161.459 65.6108ZM169.919 66.4545H167.997L166.642 71.1378H166.573L165.214 66.4545H163.296L165.585 73H167.63L169.919 66.4545ZM170.847 73H172.663V66.4545H170.847V73ZM171.759 65.6108C172.301 65.6108 172.744 65.1974 172.744 64.6903C172.744 64.1875 172.301 63.7741 171.759 63.7741C171.222 63.7741 170.779 64.1875 170.779 64.6903C170.779 65.1974 171.222 65.6108 171.759 65.6108ZM175.932 69.2159C175.937 68.3722 176.439 67.8778 177.172 67.8778C177.901 67.8778 178.34 68.3551 178.336 69.1562V73H180.151V68.8324C180.151 67.3068 179.256 66.3693 177.893 66.3693C176.921 66.3693 176.218 66.8466 175.924 67.6094H175.847V66.4545H174.117V73H175.932V69.2159ZM184.531 75.5909C186.401 75.5909 187.731 74.7386 187.731 73.0639V66.4545H185.928V67.554H185.86C185.617 67.0213 185.085 66.3693 183.99 66.3693C182.553 66.3693 181.339 67.4858 181.339 69.7145C181.339 71.892 182.519 72.9062 183.994 72.9062C185.038 72.9062 185.622 72.3821 185.86 71.8409H185.937V73.0384C185.937 73.9375 185.362 74.2869 184.573 74.2869C183.772 74.2869 183.367 73.9375 183.218 73.5412L181.539 73.767C181.757 74.7983 182.767 75.5909 184.531 75.5909ZM184.569 71.5426C183.678 71.5426 183.193 70.8352 183.193 69.706C183.193 68.5938 183.67 67.8139 184.569 67.8139C185.451 67.8139 185.945 68.5597 185.945 69.706C185.945 70.8608 185.443 71.5426 184.569 71.5426ZM191.987 73H197.574V71.4787H193.832V64.2727H191.987V73ZM198.762 73H200.577V66.4545H198.762V73ZM199.673 65.6108C200.215 65.6108 200.658 65.1974 200.658 64.6903C200.658 64.1875 200.215 63.7741 199.673 63.7741C199.137 63.7741 198.693 64.1875 198.693 64.6903C198.693 65.1974 199.137 65.6108 199.673 65.6108ZM204.988 73.1278C206.731 73.1278 207.827 72.1051 207.912 70.6009H206.199C206.092 71.2997 205.632 71.6918 205.01 71.6918C204.162 71.6918 203.612 70.9801 203.612 69.7273C203.612 68.4915 204.166 67.7841 205.01 67.7841C205.675 67.7841 206.101 68.223 206.199 68.875H207.912C207.835 67.3622 206.689 66.3693 204.98 66.3693C202.994 66.3693 201.767 67.7457 201.767 69.7528C201.767 71.7429 202.973 73.1278 204.988 73.1278ZM212.057 73.1278C213.676 73.1278 214.767 72.3395 215.023 71.125L213.344 71.0142C213.161 71.5128 212.692 71.7727 212.087 71.7727C211.179 71.7727 210.604 71.1719 210.604 70.196V70.1918H215.061V69.6932C215.061 67.4688 213.715 66.3693 211.985 66.3693C210.058 66.3693 208.81 67.7372 208.81 69.7571C208.81 71.8324 210.041 73.1278 212.057 73.1278ZM210.604 69.0668C210.642 68.321 211.209 67.7244 212.014 67.7244C212.803 67.7244 213.348 68.2869 213.352 69.0668H210.604ZM218.061 69.2159C218.066 68.3722 218.568 67.8778 219.301 67.8778C220.03 67.8778 220.469 68.3551 220.465 69.1562V73H222.28V68.8324C222.28 67.3068 221.385 66.3693 220.021 66.3693C219.05 66.3693 218.347 66.8466 218.053 67.6094H217.976V66.4545H216.246V73H218.061V69.2159ZM229.157 68.321C228.995 67.1151 228.023 66.3693 226.37 66.3693C224.695 66.3693 223.591 67.1449 223.596 68.4062C223.591 69.3864 224.209 70.0213 225.488 70.277L226.621 70.5028C227.192 70.6179 227.452 70.8267 227.461 71.1548C227.452 71.5426 227.03 71.8196 226.395 71.8196C225.748 71.8196 225.317 71.5426 225.206 71.0099L223.421 71.1037C223.591 72.3565 224.657 73.1278 226.391 73.1278C228.087 73.1278 229.302 72.2628 229.306 70.9716C229.302 70.0256 228.684 69.4588 227.414 69.1989L226.229 68.9602C225.62 68.8281 225.394 68.6193 225.398 68.304C225.394 67.9119 225.837 67.6562 226.4 67.6562C227.03 67.6562 227.405 68.0014 227.495 68.4233L229.157 68.321ZM233.432 73.1278C235.051 73.1278 236.142 72.3395 236.398 71.125L234.719 71.0142C234.536 71.5128 234.067 71.7727 233.462 71.7727C232.554 71.7727 231.979 71.1719 231.979 70.196V70.1918H236.436V69.6932C236.436 67.4688 235.09 66.3693 233.36 66.3693C231.433 66.3693 230.185 67.7372 230.185 69.7571C230.185 71.8324 231.416 73.1278 233.432 73.1278ZM231.979 69.0668C232.017 68.321 232.584 67.7244 233.389 67.7244C234.178 67.7244 234.723 68.2869 234.727 69.0668H231.979ZM239.713 69.1818H240.86L240.749 67.5327L242.129 68.4574L242.7 67.4517L241.218 66.7273L242.7 66.0028L242.129 64.9972L240.749 65.9219L240.86 64.2727H239.713L239.82 65.9219L238.439 64.9972L237.868 66.0028L239.355 66.7273L237.868 67.4517L238.439 68.4574L239.82 67.5327L239.713 69.1818ZM120.122 88.6364C120.122 90.7756 120.693 92.5568 121.775 94.0739H122.943C122.103 92.9489 121.443 90.6648 121.443 88.6364C121.443 86.6122 122.103 84.3281 122.943 83.2031H121.775C120.693 84.7202 120.122 86.5014 120.122 88.6364ZM124.388 84.2727V93H125.641V86.6804H125.722L128.296 92.9872H129.336L131.91 86.6847H131.991V93H133.244V84.2727H131.646L128.867 91.0568H128.765L125.987 84.2727H124.388ZM136.961 93.1449C138.043 93.1449 138.652 92.5952 138.895 92.1051H138.946V93H140.191V88.6534C140.191 86.7486 138.691 86.3693 137.651 86.3693C136.466 86.3693 135.375 86.8466 134.949 88.0398L136.147 88.3125C136.334 87.848 136.811 87.4006 137.668 87.4006C138.49 87.4006 138.912 87.831 138.912 88.5724V88.6023C138.912 89.0668 138.435 89.0582 137.259 89.1946C136.019 89.3395 134.749 89.6634 134.749 91.1506C134.749 92.4375 135.716 93.1449 136.961 93.1449ZM137.238 92.1222C136.517 92.1222 135.998 91.7983 135.998 91.1676C135.998 90.4858 136.603 90.2429 137.34 90.1449C137.753 90.0895 138.733 89.9787 138.917 89.7955V90.6392C138.917 91.4148 138.299 92.1222 137.238 92.1222ZM142.893 86.4545H141.496L143.507 89.7273L141.47 93H142.868L144.338 90.554L145.812 93H147.206L145.148 89.7273L147.189 86.4545H145.795L144.338 89.0028L142.893 86.4545ZM154.537 93.1193C156.292 93.1193 157.545 91.8793 157.541 90.179C157.545 88.4915 156.369 87.2642 154.779 87.2642C154.132 87.2642 153.531 87.5114 153.19 87.8438H153.139L153.416 85.402H157.119V84.2727H152.321L151.831 88.6705L153.037 88.8494C153.365 88.5554 153.953 88.3551 154.481 88.3551C155.517 88.3636 156.267 89.1392 156.267 90.2045C156.267 91.2528 155.538 92.0114 154.537 92.0114C153.693 92.0114 153.024 91.4744 152.956 90.7244H151.677C151.728 92.1136 152.934 93.1193 154.537 93.1193ZM162.136 93.1449C164.151 93.1449 165.332 91.5 165.332 88.6406C165.332 85.8026 164.134 84.1534 162.136 84.1534C160.133 84.1534 158.94 85.7983 158.935 88.6406C158.935 91.4957 160.116 93.1406 162.136 93.1449ZM162.136 92.0071C160.955 92.0071 160.244 90.8224 160.244 88.6406C160.248 86.4673 160.96 85.2699 162.136 85.2699C163.308 85.2699 164.023 86.4673 164.023 88.6406C164.023 90.8224 163.312 92.0071 162.136 92.0071ZM169.882 93.1449C171.897 93.1449 173.078 91.5 173.078 88.6406C173.078 85.8026 171.88 84.1534 169.882 84.1534C167.879 84.1534 166.686 85.7983 166.681 88.6406C166.681 91.4957 167.862 93.1406 169.882 93.1449ZM169.882 92.0071C168.701 92.0071 167.99 90.8224 167.99 88.6406C167.994 86.4673 168.706 85.2699 169.882 85.2699C171.054 85.2699 171.77 86.4673 171.77 88.6406C171.77 90.8224 171.058 92.0071 169.882 92.0071ZM174.709 93H176.026V90.2855L177.057 89.1009L179.878 93H181.463L177.93 88.2017L181.45 84.2727H179.793L176.132 88.4403H176.026V84.2727H174.709V93ZM182.678 93H186.023C188.051 93 188.967 91.9901 188.967 90.652C188.967 89.3011 188.021 88.5384 187.156 88.4915V88.4062C187.957 88.2017 188.626 87.6562 188.626 86.5653C188.626 85.2741 187.732 84.2727 185.874 84.2727H182.678V93ZM183.994 91.8707V89.0753H185.942C186.999 89.0753 187.659 89.7571 187.659 90.5881C187.659 91.321 187.161 91.8707 185.895 91.8707H183.994ZM183.994 88.0483V85.3935H185.793C186.837 85.3935 187.335 85.9432 187.335 86.6676C187.335 87.5114 186.645 88.0483 185.759 88.0483H183.994ZM192.877 88.6406C192.877 86.5014 192.306 84.7202 191.224 83.2031H190.056C190.896 84.3281 191.556 86.6122 191.556 88.6406C191.556 90.6648 190.896 92.9489 190.056 94.0739H191.224C192.306 92.5568 192.877 90.7756 192.877 88.6406Z" fill="#585757"/>
</svg>
