<svg width="125" height="123" viewBox="0 0 125 123" fill="none" xmlns="http://www.w3.org/2000/svg">
<rect width="125" height="123" rx="8" fill="white"/>
<rect x="5.75" y="5.75" width="113.5" height="111.5" rx="7.25" stroke="#585757" stroke-width="1.5" stroke-dasharray="5 5"/>
<path d="M72 40V44C72 44.5304 71.7893 45.0391 71.4142 45.4142C71.0391 45.7893 70.5304 46 70 46H56C55.4696 46 54.9609 45.7893 54.5858 45.4142C54.2107 45.0391 54 44.5304 54 44V40" stroke="#0085FF" stroke-width="2" stroke-linecap="round" stroke-linejoin="round"/>
<path d="M72 40V44C72 44.5304 71.7893 45.0391 71.4142 45.4142C71.0391 45.7893 70.5304 46 70 46H56C55.4696 46 54.9609 45.7893 54.5858 45.4142C54.2107 45.0391 54 44.5304 54 44V40" stroke="black" stroke-opacity="0.6" stroke-width="2" stroke-linecap="round" stroke-linejoin="round"/>
<path d="M68 33L63 28L58 33" stroke="#0085FF" stroke-width="2" stroke-linecap="round" stroke-linejoin="round"/>
<path d="M68 33L63 28L58 33" stroke="black" stroke-opacity="0.6" stroke-width="2" stroke-linecap="round" stroke-linejoin="round"/>
<path d="M63 28V40" stroke="#0085FF" stroke-width="2" stroke-linecap="round" stroke-linejoin="round"/>
<path d="M63 28V40" stroke="black" stroke-opacity="0.6" stroke-width="2" stroke-linecap="round" stroke-linejoin="round"/>
<path d="M24.8152 73H26.6603V70.1705H28.2115C30.2186 70.1705 31.3862 68.973 31.3862 67.2301C31.3862 65.4957 30.2399 64.2727 28.2583 64.2727H24.8152V73ZM26.6603 68.6918V65.7812H27.9047C28.97 65.7812 29.4856 66.3608 29.4856 67.2301C29.4856 68.0952 28.97 68.6918 27.9132 68.6918H26.6603ZM32.5506 73H34.3659V69.2969C34.3659 68.4915 34.954 67.9375 35.7551 67.9375C36.0066 67.9375 36.3517 67.9801 36.5222 68.0355V66.4247C36.3603 66.3864 36.1344 66.3608 35.9512 66.3608C35.2182 66.3608 34.6174 66.7869 34.3787 67.5966H34.3105V66.4545H32.5506V73ZM40.1135 73.1278C42.0993 73.1278 43.3351 71.7685 43.3351 69.7528C43.3351 67.7244 42.0993 66.3693 40.1135 66.3693C38.1277 66.3693 36.8919 67.7244 36.8919 69.7528C36.8919 71.7685 38.1277 73.1278 40.1135 73.1278ZM40.122 71.7216C39.2058 71.7216 38.737 70.8821 38.737 69.7401C38.737 68.598 39.2058 67.7543 40.122 67.7543C41.0211 67.7543 41.4899 68.598 41.4899 69.7401C41.4899 70.8821 41.0211 71.7216 40.122 71.7216ZM48.0353 66.4545H46.7356V66.0156C46.7356 65.5724 46.9146 65.3125 47.4473 65.3125C47.6646 65.3125 47.8862 65.3594 48.0311 65.4062L48.3507 64.0426C48.1248 63.9744 47.6262 63.8636 47.068 63.8636C45.8365 63.8636 44.9203 64.5582 44.9203 65.9815V66.4545H43.9956V67.8182H44.9203V73H46.7356V67.8182H48.0353V66.4545ZM49.1444 73H50.9597V66.4545H49.1444V73ZM50.0563 65.6108C50.5975 65.6108 51.0407 65.1974 51.0407 64.6903C51.0407 64.1875 50.5975 63.7741 50.0563 63.7741C49.5194 63.7741 49.0762 64.1875 49.0762 64.6903C49.0762 65.1974 49.5194 65.6108 50.0563 65.6108ZM54.2292 64.2727H52.4139V73H54.2292V64.2727ZM58.6664 73.1278C60.2857 73.1278 61.3766 72.3395 61.6323 71.125L59.9533 71.0142C59.7701 71.5128 59.3013 71.7727 58.6962 71.7727C57.7885 71.7727 57.2132 71.1719 57.2132 70.196V70.1918H61.6706V69.6932C61.6706 67.4688 60.324 66.3693 58.5939 66.3693C56.6678 66.3693 55.4192 67.7372 55.4192 69.7571C55.4192 71.8324 56.6507 73.1278 58.6664 73.1278ZM57.2132 69.0668C57.2516 68.321 57.8184 67.7244 58.6238 67.7244C59.4121 67.7244 59.9576 68.2869 59.9618 69.0668H57.2132ZM67.5119 64.2727H65.6667V73H67.5119V64.2727ZM68.9959 73H70.8113V69.071C70.8113 68.3466 71.2715 67.8651 71.8766 67.8651C72.4732 67.8651 72.8738 68.2741 72.8738 68.9176V73H74.6337V69.0028C74.6337 68.3253 75.0215 67.8651 75.682 67.8651C76.2615 67.8651 76.6962 68.2273 76.6962 68.956V73H78.5073V68.598C78.5073 67.179 77.6635 66.3693 76.4448 66.3693C75.486 66.3693 74.7402 66.8594 74.4718 67.6094H74.4036C74.1948 66.8509 73.5257 66.3693 72.6266 66.3693C71.7445 66.3693 71.0755 66.8381 70.8027 67.6094H70.726V66.4545H68.9959V73ZM81.8077 73.1236C82.775 73.1236 83.4015 72.7017 83.7211 72.0923H83.7722V73H85.4938V68.5852C85.4938 67.0256 84.1728 66.3693 82.7154 66.3693C81.1472 66.3693 80.1159 67.1193 79.8645 68.3125L81.5435 68.4489C81.6671 68.0142 82.0549 67.6946 82.7069 67.6946C83.3248 67.6946 83.6784 68.0057 83.6784 68.5426V68.5682C83.6784 68.9901 83.231 69.0455 82.0932 69.1562C80.7978 69.2756 79.6344 69.7102 79.6344 71.1719C79.6344 72.4673 80.5591 73.1236 81.8077 73.1236ZM82.3276 71.8707C81.7694 71.8707 81.3688 71.6108 81.3688 71.1122C81.3688 70.6009 81.7907 70.3494 82.4299 70.2599C82.8262 70.2045 83.4739 70.1108 83.6912 69.9659V70.6605C83.6912 71.3466 83.1245 71.8707 82.3276 71.8707ZM89.851 75.5909C91.7218 75.5909 93.0513 74.7386 93.0513 73.0639V66.4545H91.2488V67.554H91.1806C90.9377 67.0213 90.405 66.3693 89.3098 66.3693C87.8738 66.3693 86.6593 67.4858 86.6593 69.7145C86.6593 71.892 87.8397 72.9062 89.3141 72.9062C90.3581 72.9062 90.9419 72.3821 91.1806 71.8409H91.2573V73.0384C91.2573 73.9375 90.682 74.2869 89.8936 74.2869C89.0925 74.2869 88.6877 73.9375 88.5385 73.5412L86.8596 73.767C87.0769 74.7983 88.0868 75.5909 89.851 75.5909ZM89.8894 71.5426C88.9988 71.5426 88.513 70.8352 88.513 69.706C88.513 68.5938 88.9902 67.8139 89.8894 67.8139C90.7715 67.8139 91.2658 68.5597 91.2658 69.706C91.2658 70.8608 90.763 71.5426 89.8894 71.5426ZM97.4789 73.1278C99.0982 73.1278 100.189 72.3395 100.445 71.125L98.7658 71.0142C98.5826 71.5128 98.1138 71.7727 97.5087 71.7727C96.601 71.7727 96.0257 71.1719 96.0257 70.196V70.1918H100.483V69.6932C100.483 67.4688 99.1365 66.3693 97.4064 66.3693C95.4803 66.3693 94.2317 67.7372 94.2317 69.7571C94.2317 71.8324 95.4632 73.1278 97.4789 73.1278ZM96.0257 69.0668C96.0641 68.321 96.6309 67.7244 97.4363 67.7244C98.2246 67.7244 98.7701 68.2869 98.7743 69.0668H96.0257ZM39.8152 88.6364C39.8152 90.7756 40.3862 92.5568 41.4686 94.0739H42.6362C41.7967 92.9489 41.1362 90.6648 41.1362 88.6364C41.1362 86.6122 41.7967 84.3281 42.6362 83.2031H41.4686C40.3862 84.7202 39.8152 86.5014 39.8152 88.6364ZM46.8432 93.1193C48.5989 93.1193 49.8517 91.8793 49.8475 90.179C49.8517 88.4915 48.6756 87.2642 47.0861 87.2642C46.4384 87.2642 45.8375 87.5114 45.4966 87.8438H45.4455L45.7225 85.402H49.4256V84.2727H44.6273L44.1373 88.6705L45.3432 88.8494C45.6713 88.5554 46.2594 88.3551 46.7878 88.3551C47.8233 88.3636 48.5733 89.1392 48.5733 90.2045C48.5733 91.2528 47.8446 92.0114 46.8432 92.0114C45.9995 92.0114 45.3304 91.4744 45.2623 90.7244H43.9838C44.035 92.1136 45.2409 93.1193 46.8432 93.1193ZM54.4423 93.1449C56.4579 93.1449 57.6383 91.5 57.6383 88.6406C57.6383 85.8026 56.4409 84.1534 54.4423 84.1534C52.4395 84.1534 51.2463 85.7983 51.242 88.6406C51.242 91.4957 52.4224 93.1406 54.4423 93.1449ZM54.4423 92.0071C53.2619 92.0071 52.5502 90.8224 52.5502 88.6406C52.5545 86.4673 53.2662 85.2699 54.4423 85.2699C55.6142 85.2699 56.3301 86.4673 56.3301 88.6406C56.3301 90.8224 55.6184 92.0071 54.4423 92.0071ZM62.1884 93.1449C64.204 93.1449 65.3844 91.5 65.3844 88.6406C65.3844 85.8026 64.187 84.1534 62.1884 84.1534C60.1855 84.1534 58.9924 85.7983 58.9881 88.6406C58.9881 91.4957 60.1685 93.1406 62.1884 93.1449ZM62.1884 92.0071C61.008 92.0071 60.2963 90.8224 60.2963 88.6406C60.3006 86.4673 61.0123 85.2699 62.1884 85.2699C63.3603 85.2699 64.0762 86.4673 64.0762 88.6406C64.0762 90.8224 63.3645 92.0071 62.1884 92.0071ZM67.0154 93H68.3322V90.2855L69.3635 89.1009L72.1845 93H73.7697L70.237 88.2017L73.7569 84.2727H72.0993L68.4387 88.4403H68.3322V84.2727H67.0154V93ZM74.9842 93H78.3294C80.3578 93 81.274 91.9901 81.274 90.652C81.274 89.3011 80.3279 88.5384 79.4629 88.4915V88.4062C80.264 88.2017 80.9331 87.6562 80.9331 86.5653C80.9331 85.2741 80.0382 84.2727 78.1802 84.2727H74.9842V93ZM76.301 91.8707V89.0753H78.2484C79.3052 89.0753 79.9657 89.7571 79.9657 90.5881C79.9657 91.321 79.4672 91.8707 78.2015 91.8707H76.301ZM76.301 88.0483V85.3935H78.0993C79.1433 85.3935 79.6419 85.9432 79.6419 86.6676C79.6419 87.5114 78.9515 88.0483 78.0652 88.0483H76.301ZM85.1838 88.6406C85.1838 86.5014 84.6127 84.7202 83.5304 83.2031H82.3627C83.2022 84.3281 83.8627 86.6122 83.8627 88.6406C83.8627 90.6648 83.2022 92.9489 82.3627 94.0739H83.5304C84.6127 92.5568 85.1838 90.7756 85.1838 88.6406Z" fill="#585757"/>
</svg>
