<svg width="210" height="50" viewBox="0 0 210 50" fill="none" xmlns="http://www.w3.org/2000/svg">
<path opacity="0.6" d="M35 27.3333H195" stroke="#007AFF" stroke-width="2"/>
<circle cx="25" cy="25" r="25" fill="#007AFF"/>
<path d="M22.148 20.7V18.378H26.486V31.5H23.894V20.7H22.148Z" fill="white"/>
<circle cx="105" cy="25" r="25" fill="#007AFF"/>
<path d="M101.246 28.656C102.398 27.696 103.316 26.898 104 26.262C104.684 25.614 105.254 24.942 105.71 24.246C106.166 23.55 106.394 22.866 106.394 22.194C106.394 21.582 106.25 21.102 105.962 20.754C105.674 20.406 105.23 20.232 104.63 20.232C104.03 20.232 103.568 20.436 103.244 20.844C102.92 21.24 102.752 21.786 102.74 22.482H100.292C100.34 21.042 100.766 19.95 101.57 19.206C102.386 18.462 103.418 18.09 104.666 18.09C106.034 18.09 107.084 18.456 107.816 19.188C108.548 19.908 108.914 20.862 108.914 22.05C108.914 22.986 108.662 23.88 108.158 24.732C107.654 25.584 107.078 26.328 106.43 26.964C105.782 27.588 104.936 28.344 103.892 29.232H109.202V31.32H100.31V29.448L101.246 28.656Z" fill="white"/>
<circle cx="185" cy="25" r="25" fill="#007AFF"/>
<path d="M180.49 21.834C180.55 20.634 180.97 19.71 181.75 19.062C182.542 18.402 183.58 18.072 184.864 18.072C185.74 18.072 186.49 18.228 187.114 18.54C187.738 18.84 188.206 19.254 188.518 19.782C188.842 20.298 189.004 20.886 189.004 21.546C189.004 22.302 188.806 22.944 188.41 23.472C188.026 23.988 187.564 24.336 187.024 24.516V24.588C187.72 24.804 188.26 25.188 188.644 25.74C189.04 26.292 189.238 27 189.238 27.864C189.238 28.584 189.07 29.226 188.734 29.79C188.41 30.354 187.924 30.798 187.276 31.122C186.64 31.434 185.872 31.59 184.972 31.59C183.616 31.59 182.512 31.248 181.66 30.564C180.808 29.88 180.358 28.872 180.31 27.54H182.758C182.782 28.128 182.98 28.602 183.352 28.962C183.736 29.31 184.258 29.484 184.918 29.484C185.53 29.484 185.998 29.316 186.322 28.98C186.658 28.632 186.826 28.188 186.826 27.648C186.826 26.928 186.598 26.412 186.142 26.1C185.686 25.788 184.978 25.632 184.018 25.632H183.496V23.562H184.018C185.722 23.562 186.574 22.992 186.574 21.852C186.574 21.336 186.418 20.934 186.106 20.646C185.806 20.358 185.368 20.214 184.792 20.214C184.228 20.214 183.79 20.37 183.478 20.682C183.178 20.982 183.004 21.366 182.956 21.834H180.49Z" fill="white"/>
</svg>
