<svg width="312" height="123" viewBox="0 0 312 123" fill="none" xmlns="http://www.w3.org/2000/svg">
<rect width="312" height="123" rx="8" fill="white"/>
<rect x="5.75" y="5.75" width="300.5" height="111.5" rx="7.25" stroke="#585757" stroke-width="1.5" stroke-dasharray="5 5"/>
<path d="M166 40V44C166 44.5304 165.789 45.0391 165.414 45.4142C165.039 45.7893 164.53 46 164 46H150C149.47 46 148.961 45.7893 148.586 45.4142C148.211 45.0391 148 44.5304 148 44V40" stroke="#0085FF" stroke-width="2" stroke-linecap="round" stroke-linejoin="round"/>
<path d="M166 40V44C166 44.5304 165.789 45.0391 165.414 45.4142C165.039 45.7893 164.53 46 164 46H150C149.47 46 148.961 45.7893 148.586 45.4142C148.211 45.0391 148 44.5304 148 44V40" stroke="black" stroke-opacity="0.6" stroke-width="2" stroke-linecap="round" stroke-linejoin="round"/>
<path d="M162 33L157 28L152 33" stroke="#0085FF" stroke-width="2" stroke-linecap="round" stroke-linejoin="round"/>
<path d="M162 33L157 28L152 33" stroke="black" stroke-opacity="0.6" stroke-width="2" stroke-linecap="round" stroke-linejoin="round"/>
<path d="M157 28V40" stroke="#0085FF" stroke-width="2" stroke-linecap="round" stroke-linejoin="round"/>
<path d="M157 28V40" stroke="black" stroke-opacity="0.6" stroke-width="2" stroke-linecap="round" stroke-linejoin="round"/>
<path d="M70.7674 67.3281C70.5245 65.3125 68.9989 64.1534 66.979 64.1534C64.6737 64.1534 62.9137 65.7812 62.9137 68.6364C62.9137 71.483 64.6438 73.1193 66.979 73.1193C69.2163 73.1193 70.5671 71.6321 70.7674 70.0256L68.9009 70.017C68.7262 70.9503 67.9933 71.4872 67.0089 71.4872C65.6836 71.4872 64.7844 70.5028 64.7844 68.6364C64.7844 66.821 65.6708 65.7855 67.0217 65.7855C68.0316 65.7855 68.7603 66.3693 68.9009 67.3281H70.7674ZM75.0138 73.1278C76.9996 73.1278 78.2354 71.7685 78.2354 69.7528C78.2354 67.7244 76.9996 66.3693 75.0138 66.3693C73.0281 66.3693 71.7923 67.7244 71.7923 69.7528C71.7923 71.7685 73.0281 73.1278 75.0138 73.1278ZM75.0224 71.7216C74.1062 71.7216 73.6374 70.8821 73.6374 69.7401C73.6374 68.598 74.1062 67.7543 75.0224 67.7543C75.9215 67.7543 76.3903 68.598 76.3903 69.7401C76.3903 70.8821 75.9215 71.7216 75.0224 71.7216ZM81.2312 69.2159C81.2354 68.3722 81.7383 67.8778 82.4712 67.8778C83.1999 67.8778 83.6388 68.3551 83.6346 69.1562V73H85.4499V68.8324C85.4499 67.3068 84.555 66.3693 83.1914 66.3693C82.2198 66.3693 81.5167 66.8466 81.2227 67.6094H81.146V66.4545H79.4158V73H81.2312V69.2159ZM90.3622 66.4545H89.1307V64.8864H87.3153V66.4545H86.4205V67.8182H87.3153V71.2273C87.3068 72.5099 88.1804 73.1449 89.4972 73.0895C89.9659 73.0724 90.2983 72.9787 90.4815 72.919L90.196 71.5682C90.1065 71.5852 89.9148 71.6278 89.7443 71.6278C89.3821 71.6278 89.1307 71.4915 89.1307 70.9886V67.8182H90.3622V66.4545ZM91.5447 73H93.3601V69.2969C93.3601 68.4915 93.9482 67.9375 94.7493 67.9375C95.0007 67.9375 95.3459 67.9801 95.5163 68.0355V66.4247C95.3544 66.3864 95.1286 66.3608 94.9453 66.3608C94.2124 66.3608 93.6115 66.7869 93.3729 67.5966H93.3047V66.4545H91.5447V73ZM98.1339 73.1236C99.1012 73.1236 99.7276 72.7017 100.047 72.0923H100.098V73H101.82V68.5852C101.82 67.0256 100.499 66.3693 99.0415 66.3693C97.4734 66.3693 96.4421 67.1193 96.1907 68.3125L97.8697 68.4489C97.9933 68.0142 98.381 67.6946 99.033 67.6946C99.6509 67.6946 100.005 68.0057 100.005 68.5426V68.5682C100.005 68.9901 99.5572 69.0455 98.4194 69.1562C97.1239 69.2756 95.9606 69.7102 95.9606 71.1719C95.9606 72.4673 96.8853 73.1236 98.1339 73.1236ZM98.6538 71.8707C98.0955 71.8707 97.695 71.6108 97.695 71.1122C97.695 70.6009 98.1168 70.3494 98.756 70.2599C99.1523 70.2045 99.8001 70.1108 100.017 69.9659V70.6605C100.017 71.3466 99.4506 71.8707 98.6538 71.8707ZM106.186 73.1278C107.929 73.1278 109.024 72.1051 109.109 70.6009H107.396C107.289 71.2997 106.829 71.6918 106.207 71.6918C105.359 71.6918 104.809 70.9801 104.809 69.7273C104.809 68.4915 105.363 67.7841 106.207 67.7841C106.872 67.7841 107.298 68.223 107.396 68.875H109.109C109.032 67.3622 107.886 66.3693 106.177 66.3693C104.191 66.3693 102.964 67.7457 102.964 69.7528C102.964 71.7429 104.17 73.1278 106.186 73.1278ZM113.753 66.4545H112.521V64.8864H110.706V66.4545H109.811V67.8182H110.706V71.2273C110.697 72.5099 111.571 73.1449 112.888 73.0895C113.357 73.0724 113.689 72.9787 113.872 72.919L113.587 71.5682C113.497 71.5852 113.305 71.6278 113.135 71.6278C112.773 71.6278 112.521 71.4915 112.521 70.9886V67.8182H113.753V66.4545ZM122.481 66.7827H124.25C124.224 65.2273 122.946 64.1534 121.002 64.1534C119.089 64.1534 117.687 65.2102 117.696 66.7955C117.691 68.0824 118.599 68.8196 120.074 69.1733L121.024 69.4119C121.974 69.642 122.502 69.9148 122.507 70.5028C122.502 71.142 121.897 71.5767 120.96 71.5767C120.001 71.5767 119.311 71.1335 119.251 70.2599H117.466C117.512 72.1477 118.863 73.1236 120.981 73.1236C123.112 73.1236 124.365 72.1051 124.369 70.5071C124.365 69.054 123.27 68.2827 121.752 67.9418L120.968 67.7543C120.21 67.5795 119.575 67.2983 119.588 66.6719C119.588 66.1094 120.086 65.696 120.99 65.696C121.872 65.696 122.413 66.0966 122.481 66.7827ZM125.576 73H127.391V66.4545H125.576V73ZM126.488 65.6108C127.029 65.6108 127.472 65.1974 127.472 64.6903C127.472 64.1875 127.029 63.7741 126.488 63.7741C125.951 63.7741 125.508 64.1875 125.508 64.6903C125.508 65.1974 125.951 65.6108 126.488 65.6108ZM131.794 75.5909C133.665 75.5909 134.995 74.7386 134.995 73.0639V66.4545H133.192V67.554H133.124C132.881 67.0213 132.348 66.3693 131.253 66.3693C129.817 66.3693 128.603 67.4858 128.603 69.7145C128.603 71.892 129.783 72.9062 131.257 72.9062C132.301 72.9062 132.885 72.3821 133.124 71.8409H133.201V73.0384C133.201 73.9375 132.625 74.2869 131.837 74.2869C131.036 74.2869 130.631 73.9375 130.482 73.5412L128.803 73.767C129.02 74.7983 130.03 75.5909 131.794 75.5909ZM131.833 71.5426C130.942 71.5426 130.456 70.8352 130.456 69.706C130.456 68.5938 130.934 67.8139 131.833 67.8139C132.715 67.8139 133.209 68.5597 133.209 69.706C133.209 70.8608 132.706 71.5426 131.833 71.5426ZM138.255 69.2159C138.259 68.3722 138.762 67.8778 139.495 67.8778C140.223 67.8778 140.662 68.3551 140.658 69.1562V73H142.473V68.8324C142.473 67.3068 141.578 66.3693 140.215 66.3693C139.243 66.3693 138.54 66.8466 138.246 67.6094H138.169V66.4545H136.439V73H138.255V69.2159ZM145.771 73.1236C146.738 73.1236 147.364 72.7017 147.684 72.0923H147.735V73H149.457V68.5852C149.457 67.0256 148.136 66.3693 146.678 66.3693C145.11 66.3693 144.079 67.1193 143.827 68.3125L145.506 68.4489C145.63 68.0142 146.018 67.6946 146.67 67.6946C147.288 67.6946 147.641 68.0057 147.641 68.5426V68.5682C147.641 68.9901 147.194 69.0455 146.056 69.1562C144.761 69.2756 143.597 69.7102 143.597 71.1719C143.597 72.4673 144.522 73.1236 145.771 73.1236ZM146.29 71.8707C145.732 71.8707 145.332 71.6108 145.332 71.1122C145.332 70.6009 145.754 70.3494 146.393 70.2599C146.789 70.2045 147.437 70.1108 147.654 69.9659V70.6605C147.654 71.3466 147.087 71.8707 146.29 71.8707ZM154.347 66.4545H153.115V64.8864H151.3V66.4545H150.405V67.8182H151.3V71.2273C151.291 72.5099 152.165 73.1449 153.482 73.0895C153.95 73.0724 154.283 72.9787 154.466 72.919L154.18 71.5682C154.091 71.5852 153.899 71.6278 153.729 71.6278C153.366 71.6278 153.115 71.4915 153.115 70.9886V67.8182H154.347V66.4545ZM159.727 70.2131C159.731 71.0909 159.13 71.5511 158.478 71.5511C157.792 71.5511 157.349 71.0696 157.344 70.2983V66.4545H155.529V70.6222C155.533 72.152 156.428 73.0852 157.745 73.0852C158.729 73.0852 159.437 72.5781 159.731 71.8111H159.799V73H161.542V66.4545H159.727V70.2131ZM162.994 73H164.809V69.2969C164.809 68.4915 165.397 67.9375 166.199 67.9375C166.45 67.9375 166.795 67.9801 166.966 68.0355V66.4247C166.804 66.3864 166.578 66.3608 166.395 66.3608C165.662 66.3608 165.061 66.7869 164.822 67.5966H164.754V66.4545H162.994V73ZM170.582 73.1278C172.202 73.1278 173.293 72.3395 173.548 71.125L171.869 71.0142C171.686 71.5128 171.217 71.7727 170.612 71.7727C169.705 71.7727 169.129 71.1719 169.129 70.196V70.1918H173.587V69.6932C173.587 67.4688 172.24 66.3693 170.51 66.3693C168.584 66.3693 167.335 67.7372 167.335 69.7571C167.335 71.8324 168.567 73.1278 170.582 73.1278ZM169.129 69.0668C169.168 68.321 169.734 67.7244 170.54 67.7244C171.328 67.7244 171.874 68.2869 171.878 69.0668H169.129ZM177.583 73H179.428V70.1705H180.979C182.986 70.1705 184.154 68.973 184.154 67.2301C184.154 65.4957 183.007 64.2727 181.026 64.2727H177.583V73ZM179.428 68.6918V65.7812H180.672C181.738 65.7812 182.253 66.3608 182.253 67.2301C182.253 68.0952 181.738 68.6918 180.681 68.6918H179.428ZM187.009 73.1236C187.976 73.1236 188.603 72.7017 188.922 72.0923H188.973V73H190.695V68.5852C190.695 67.0256 189.374 66.3693 187.917 66.3693C186.348 66.3693 185.317 67.1193 185.066 68.3125L186.745 68.4489C186.868 68.0142 187.256 67.6946 187.908 67.6946C188.526 67.6946 188.88 68.0057 188.88 68.5426V68.5682C188.88 68.9901 188.432 69.0455 187.294 69.1562C185.999 69.2756 184.836 69.7102 184.836 71.1719C184.836 72.4673 185.76 73.1236 187.009 73.1236ZM187.529 71.8707C186.971 71.8707 186.57 71.6108 186.57 71.1122C186.57 70.6009 186.992 70.3494 187.631 70.2599C188.027 70.2045 188.675 70.1108 188.892 69.9659V70.6605C188.892 71.3466 188.326 71.8707 187.529 71.8707ZM192.103 75.4545H193.919V71.9517H193.974C194.225 72.4972 194.775 73.1065 195.832 73.1065C197.324 73.1065 198.487 71.9261 198.487 69.7358C198.487 67.4858 197.272 66.3693 195.836 66.3693C194.741 66.3693 194.217 67.0213 193.974 67.554H193.893V66.4545H192.103V75.4545ZM193.88 69.7273C193.88 68.5597 194.375 67.8139 195.257 67.8139C196.156 67.8139 196.633 68.5938 196.633 69.7273C196.633 70.8693 196.147 71.6619 195.257 71.6619C194.383 71.6619 193.88 70.8949 193.88 69.7273ZM202.68 73.1278C204.299 73.1278 205.39 72.3395 205.646 71.125L203.967 71.0142C203.784 71.5128 203.315 71.7727 202.71 71.7727C201.802 71.7727 201.227 71.1719 201.227 70.196V70.1918H205.684V69.6932C205.684 67.4688 204.338 66.3693 202.608 66.3693C200.681 66.3693 199.433 67.7372 199.433 69.7571C199.433 71.8324 200.664 73.1278 202.68 73.1278ZM201.227 69.0668C201.265 68.321 201.832 67.7244 202.637 67.7244C203.426 67.7244 203.971 68.2869 203.975 69.0668H201.227ZM206.869 73H208.684V69.2969C208.684 68.4915 209.272 67.9375 210.074 67.9375C210.325 67.9375 210.67 67.9801 210.841 68.0355V66.4247C210.679 66.3864 210.453 66.3608 210.27 66.3608C209.537 66.3608 208.936 66.7869 208.697 67.5966H208.629V66.4545H206.869V73ZM214.957 69.5014C214.957 71.6193 215.515 73.3793 216.679 74.8963H218.413C217.522 73.7713 216.845 71.5213 216.845 69.5014C216.845 67.4858 217.522 65.2358 218.413 64.1108H216.679C215.515 65.6278 214.957 67.3835 214.957 69.5014ZM226.8 64.2727H224.964V69.7614H224.887L221.12 64.2727H219.501V73H221.346V67.5071H221.41L225.207 73H226.8V64.2727ZM231.419 73C234.078 73 235.689 71.3551 235.689 68.6278C235.689 65.9091 234.078 64.2727 231.444 64.2727H228.325V73H231.419ZM230.17 71.419V65.8537H231.346C232.983 65.8537 233.848 66.6889 233.848 68.6278C233.848 70.5753 232.983 71.419 231.342 71.419H230.17ZM238.067 73L238.715 71.0099H241.864L242.512 73H244.489L241.481 64.2727H239.103L236.09 73H238.067ZM239.184 69.5696L240.258 66.267H240.326L241.4 69.5696H239.184ZM248.565 68.6364C248.565 66.5185 248.007 64.7585 246.844 63.2415H245.109C246 64.3665 246.678 66.6165 246.678 68.6364C246.678 70.652 246 72.902 245.109 74.027H246.844C248.007 72.5099 248.565 70.7543 248.565 68.6364ZM119.622 88.6364C119.622 90.7756 120.193 92.5568 121.275 94.0739H122.443C121.603 92.9489 120.943 90.6648 120.943 88.6364C120.943 86.6122 121.603 84.3281 122.443 83.2031H121.275C120.193 84.7202 119.622 86.5014 119.622 88.6364ZM123.888 84.2727V93H125.141V86.6804H125.222L127.796 92.9872H128.836L131.41 86.6847H131.491V93H132.744V84.2727H131.146L128.367 91.0568H128.265L125.487 84.2727H123.888ZM136.461 93.1449C137.543 93.1449 138.152 92.5952 138.395 92.1051H138.446V93H139.691V88.6534C139.691 86.7486 138.191 86.3693 137.151 86.3693C135.966 86.3693 134.875 86.8466 134.449 88.0398L135.647 88.3125C135.834 87.848 136.311 87.4006 137.168 87.4006C137.99 87.4006 138.412 87.831 138.412 88.5724V88.6023C138.412 89.0668 137.935 89.0582 136.759 89.1946C135.519 89.3395 134.249 89.6634 134.249 91.1506C134.249 92.4375 135.216 93.1449 136.461 93.1449ZM136.738 92.1222C136.017 92.1222 135.498 91.7983 135.498 91.1676C135.498 90.4858 136.103 90.2429 136.84 90.1449C137.253 90.0895 138.233 89.9787 138.417 89.7955V90.6392C138.417 91.4148 137.799 92.1222 136.738 92.1222ZM142.393 86.4545H140.996L143.007 89.7273L140.97 93H142.368L143.838 90.554L145.312 93H146.706L144.648 89.7273L146.689 86.4545H145.295L143.838 89.0028L142.393 86.4545ZM154.037 93.1193C155.792 93.1193 157.045 91.8793 157.041 90.179C157.045 88.4915 155.869 87.2642 154.279 87.2642C153.632 87.2642 153.031 87.5114 152.69 87.8438H152.639L152.916 85.402H156.619V84.2727H151.821L151.331 88.6705L152.537 88.8494C152.865 88.5554 153.453 88.3551 153.981 88.3551C155.017 88.3636 155.767 89.1392 155.767 90.2045C155.767 91.2528 155.038 92.0114 154.037 92.0114C153.193 92.0114 152.524 91.4744 152.456 90.7244H151.177C151.228 92.1136 152.434 93.1193 154.037 93.1193ZM161.636 93.1449C163.651 93.1449 164.832 91.5 164.832 88.6406C164.832 85.8026 163.634 84.1534 161.636 84.1534C159.633 84.1534 158.44 85.7983 158.435 88.6406C158.435 91.4957 159.616 93.1406 161.636 93.1449ZM161.636 92.0071C160.455 92.0071 159.744 90.8224 159.744 88.6406C159.748 86.4673 160.46 85.2699 161.636 85.2699C162.808 85.2699 163.523 86.4673 163.523 88.6406C163.523 90.8224 162.812 92.0071 161.636 92.0071ZM169.382 93.1449C171.397 93.1449 172.578 91.5 172.578 88.6406C172.578 85.8026 171.38 84.1534 169.382 84.1534C167.379 84.1534 166.186 85.7983 166.181 88.6406C166.181 91.4957 167.362 93.1406 169.382 93.1449ZM169.382 92.0071C168.201 92.0071 167.49 90.8224 167.49 88.6406C167.494 86.4673 168.206 85.2699 169.382 85.2699C170.554 85.2699 171.27 86.4673 171.27 88.6406C171.27 90.8224 170.558 92.0071 169.382 92.0071ZM174.209 93H175.526V90.2855L176.557 89.1009L179.378 93H180.963L177.43 88.2017L180.95 84.2727H179.293L175.632 88.4403H175.526V84.2727H174.209V93ZM182.178 93H185.523C187.551 93 188.467 91.9901 188.467 90.652C188.467 89.3011 187.521 88.5384 186.656 88.4915V88.4062C187.457 88.2017 188.126 87.6562 188.126 86.5653C188.126 85.2741 187.232 84.2727 185.374 84.2727H182.178V93ZM183.494 91.8707V89.0753H185.442C186.499 89.0753 187.159 89.7571 187.159 90.5881C187.159 91.321 186.661 91.8707 185.395 91.8707H183.494ZM183.494 88.0483V85.3935H185.293C186.337 85.3935 186.835 85.9432 186.835 86.6676C186.835 87.5114 186.145 88.0483 185.259 88.0483H183.494ZM192.377 88.6406C192.377 86.5014 191.806 84.7202 190.724 83.2031H189.556C190.396 84.3281 191.056 86.6122 191.056 88.6406C191.056 90.6648 190.396 92.9489 189.556 94.0739H190.724C191.806 92.5568 192.377 90.7756 192.377 88.6406Z" fill="#585757"/>
</svg>
